<svg width="430" height="359" viewBox="0 0 430 359" fill="none" xmlns="http://www.w3.org/2000/svg">
<g clip-path="url(#clip0)">
<path opacity="0.1" d="M305.607 358.996C329.868 358.996 349.536 357.054 349.536 354.659C349.536 352.263 329.868 350.321 305.607 350.321C281.346 350.321 261.678 352.263 261.678 354.659C261.678 357.054 281.346 358.996 305.607 358.996Z" fill="#00897B"/>
<path opacity="0.1" d="M188.26 5.25107C207.607 -1.95227 231.161 4.24286 251.275 13.2781C314.448 41.6625 360.471 95.5438 397.037 150.438C410.276 170.314 422.851 191.066 427.829 213.256C437.963 258.419 411.531 305.174 366.579 321.559C351.292 327.136 334.497 329.423 317.677 330.697C287.768 332.966 256.8 332.066 227.13 323.661C205.971 317.655 185.956 307.993 166.758 297.319C113.145 267.493 64.184 228.76 28.9289 181.448C13.4665 160.696 0.385564 137.301 0.00864124 113.357C-0.368281 89.413 15.2098 65.3533 40.8405 61.2818C51.4371 59.6 62.6463 61.3504 73.5813 63.1524C89.6819 65.808 106.001 68.601 121.917 67.4426C138.361 66.237 159.747 59.8017 162.745 44.0779C165.919 27.1957 168.938 12.4458 188.26 5.25107Z" fill="#00897B"/>
<path d="M104.519 329.839C104.519 329.839 125.19 328.591 122.752 343.101C122.752 343.101 123.236 345.675 120.915 346.829C120.915 346.829 120.881 345.752 118.795 346.117C118.054 346.244 117.3 346.282 116.55 346.228C115.536 346.158 114.572 345.759 113.805 345.091V345.091C113.805 345.091 107.992 342.689 105.735 333.173C105.735 333.173 104.06 331.101 104.129 330.564L107.616 332.057C107.616 332.057 106.425 334.58 107.363 336.674C107.363 336.674 107.474 332.152 108.147 332.255C108.279 332.276 109.958 333.113 109.958 333.113C109.958 333.113 107.907 337.502 109.453 340.694C109.453 340.694 108.866 335.284 110.597 333.43L113.055 334.868C113.055 334.868 110.657 339.402 112.284 343.101C112.284 343.101 111.856 337.425 113.569 335.215L115.796 336.931C115.796 336.931 113.543 341.402 114.918 344.473C114.918 344.473 115.094 337.862 116.276 337.365C116.276 337.365 118.225 339.081 118.521 339.793C118.521 339.793 116.979 343.036 117.934 344.748C117.934 344.748 118.521 340.346 119.005 340.325C119.005 340.325 120.941 343.242 121.146 345.241C121.146 345.241 121.061 342.268 119.471 340.046C119.471 340.046 121.347 340.368 122.444 341.586C122.444 341.586 122.14 339.523 118.996 339.342C118.996 339.342 117.394 337.133 116.961 336.996C116.961 336.996 120.093 336.734 121.99 337.579C121.99 337.579 120.32 335.631 116.388 336.515L114.19 334.722C114.19 334.722 118.315 334.155 120.058 334.782C120.058 334.782 118.049 333.066 113.599 334.314L111.209 332.881C111.209 332.881 114.721 332.122 116.816 332.396C116.816 332.396 114.606 331.204 110.507 332.495L108.793 331.727C108.793 331.727 111.363 331.221 112.121 331.139C112.88 331.058 112.914 330.852 112.914 330.852C111.283 330.578 109.609 330.764 108.078 331.388C108.078 331.388 104.455 330.088 104.519 329.839Z" fill="#00897B"/>
<path opacity="0.1" d="M118.756 350.57C126.837 350.57 133.388 349.462 133.388 348.095C133.388 346.727 126.837 345.619 118.756 345.619C110.675 345.619 104.125 346.727 104.125 348.095C104.125 349.462 110.675 350.57 118.756 350.57Z" fill="#00897B"/>
<path d="M76.828 320.079C76.828 320.079 88.4826 319.375 87.1077 327.557C87.1803 327.971 87.1195 328.398 86.934 328.776C86.7484 329.154 86.4478 329.463 86.0755 329.659C86.0755 329.659 86.0541 329.054 84.8805 329.26C84.4633 329.331 84.039 329.351 83.6169 329.32C83.0437 329.284 82.4984 329.06 82.0664 328.681V328.681C82.0664 328.681 78.794 327.321 77.509 321.958C77.509 321.958 76.5667 320.787 76.601 320.486L78.5713 321.344C78.5713 321.344 77.8988 322.769 78.4257 323.948C78.4257 323.948 78.4899 321.396 78.854 321.456C78.9311 321.456 79.8777 321.949 79.8777 321.949C79.8777 321.949 78.7212 324.425 79.595 326.239C79.595 326.239 79.2609 323.189 80.2375 322.142L81.6209 322.953C81.6209 322.953 80.2717 325.527 81.1926 327.595C81.1926 327.595 80.957 324.395 81.9165 323.15L83.1715 324.129C83.1715 324.129 81.8865 326.647 82.6789 328.38C82.6789 328.38 82.7774 324.652 83.4456 324.373C83.4456 324.373 84.5421 325.343 84.7091 325.742C84.7091 325.742 83.8525 327.569 84.3793 328.535C84.3793 328.535 84.7091 326.055 84.9833 326.042C84.9833 326.042 86.0755 327.685 86.1868 328.814C86.1322 327.771 85.8074 326.762 85.2445 325.883C85.8747 325.999 86.457 326.297 86.9193 326.741C86.9193 326.741 86.7522 325.579 84.9747 325.476C84.9747 325.476 84.0709 324.227 83.8311 324.154C83.8311 324.154 85.5958 324.004 86.6666 324.48C86.6666 324.48 85.7243 323.382 83.5055 323.88L82.2677 322.867C82.2677 322.867 84.5935 322.55 85.5786 322.902C85.5786 322.902 84.4436 321.932 81.9336 322.64L80.5887 321.829C81.6248 321.602 82.6859 321.511 83.7454 321.559C83.7454 321.559 82.5033 320.885 80.1903 321.615L79.2266 321.186C79.2266 321.186 80.6786 320.898 81.1027 320.855C81.5267 320.812 81.5524 320.692 81.5524 320.692C80.6323 320.539 79.6879 320.645 78.824 320.997C78.824 320.997 76.7938 320.22 76.828 320.079Z" fill="#00897B"/>
<path opacity="0.1" d="M84.8547 331.765C89.4107 331.765 93.1041 331.139 93.1041 330.366C93.1041 329.594 89.4107 328.968 84.8547 328.968C80.2986 328.968 76.6052 329.594 76.6052 330.366C76.6052 331.139 80.2986 331.765 84.8547 331.765Z" fill="#00897B"/>
<path d="M363.55 327.943C363.55 327.943 377.621 327.085 375.972 336.952C376.056 337.453 375.981 337.969 375.756 338.425C375.531 338.88 375.169 339.254 374.721 339.492C374.721 339.492 374.695 338.758 373.278 339.007C372.773 339.093 372.259 339.118 371.748 339.08C371.058 339.035 370.402 338.764 369.881 338.308V338.308C369.881 338.308 365.923 336.673 364.386 330.195C364.386 330.195 363.246 328.784 363.293 328.423L365.666 329.436C365.666 329.436 364.857 331.152 365.495 332.58C365.495 332.58 365.572 329.5 366.026 329.577C366.12 329.577 367.26 330.169 367.26 330.169C367.26 330.169 365.863 333.172 366.917 335.318C366.917 335.318 366.519 331.637 367.696 330.375L369.367 331.349C369.367 331.349 367.735 334.438 368.844 336.957C368.844 336.957 368.557 333.095 369.701 331.589L371.217 332.773C371.217 332.773 369.684 335.815 370.618 337.922C370.618 337.922 370.742 333.426 371.547 333.082C371.547 333.082 372.871 334.254 373.072 334.734C373.072 334.734 372.023 336.944 372.674 338.111C372.674 338.111 373.072 335.107 373.402 335.107C373.402 335.107 374.721 337.094 374.858 338.454C374.794 337.196 374.403 335.978 373.723 334.919C374.484 335.063 375.187 335.427 375.745 335.965C375.745 335.965 375.539 334.563 373.393 334.438C373.393 334.438 372.305 332.932 372.014 332.842C372.014 332.842 374.156 332.662 375.441 333.237C375.441 333.237 374.301 331.915 371.624 332.516L370.129 331.293C370.129 331.293 372.935 330.907 374.126 331.332C374.126 331.332 372.755 330.161 369.727 331.014L368.099 330.041C368.099 330.041 370.489 329.526 371.915 329.71C371.915 329.71 370.412 328.899 367.632 329.779L366.467 329.255C366.467 329.255 368.219 328.908 368.733 328.856C369.247 328.805 369.273 328.659 369.273 328.659C368.164 328.474 367.025 328.6 365.983 329.024C365.983 329.024 363.507 328.106 363.55 327.943Z" fill="#00897B"/>
<path opacity="0.1" d="M373.239 342.058C378.739 342.058 383.197 341.303 383.197 340.372C383.197 339.44 378.739 338.686 373.239 338.686C367.739 338.686 363.281 339.44 363.281 340.372C363.281 341.303 367.739 342.058 373.239 342.058Z" fill="#00897B"/>
<path d="M349.531 223.788C349.262 222.277 349.105 220.749 349.064 219.215C349.064 217.374 346.567 215.744 346.567 215.744C346.567 215.744 345.025 212.17 343.997 211.642C342.969 211.115 339.796 206.438 339.796 206.438C339.759 205.516 339.424 204.63 338.84 203.916C337.89 202.664 337.021 201.351 336.241 199.986C335.812 199.462 336.026 199.093 335.384 196.043C335.35 195.884 335.311 195.73 335.264 195.584C335.264 195.515 335.221 195.455 335.195 195.387C335.877 194.702 336.353 193.838 336.567 192.895C336.781 191.952 336.726 190.967 336.408 190.054C336.292 189.691 336.082 189.365 335.799 189.11C335.076 188.518 333.919 188.762 333.174 188.2L333.966 184.691C334.155 183.833 334.253 182.748 333.504 182.284C333.222 182.15 332.926 182.051 332.621 181.988C331.336 181.559 330.591 180.199 330.257 178.891C329.936 177.63 329.849 176.321 330 175.029C330.146 173.785 330.51 172.575 330.642 171.327C330.884 169.018 330.329 166.695 329.07 164.746C328.581 163.904 327.86 163.222 326.993 162.781C326.201 162.425 325.28 162.352 324.539 161.923C322.945 160.906 323.027 158.49 321.755 157.105C320.483 155.719 318.23 155.723 316.375 156.199C314.52 156.676 312.674 157.486 310.773 157.285C309.548 157.148 308.4 156.59 307.17 156.461C306.819 156.428 306.464 156.444 306.117 156.508V156.47C305.209 156.633 304.373 157.139 304.159 158.001C304.111 158.206 304.091 158.417 304.099 158.628C304.099 159.13 304.219 159.653 304.228 160.134C304.244 160.324 304.221 160.517 304.162 160.699C304.102 160.881 304.007 161.049 303.881 161.193C303.637 161.455 303.277 161.592 303.024 161.863C302.921 161.966 302.84 162.089 302.787 162.225C302.733 162.361 302.707 162.506 302.712 162.652C302.712 163.416 303.662 164.089 304.301 164.398H304.326C304.155 164.57 303.984 164.75 303.825 164.934C301.996 167.004 300.987 169.674 300.99 172.438C301.005 174.671 301.672 176.85 302.908 178.709C304.144 180.567 305.895 182.023 307.946 182.898L307.856 183.177C307.675 183.728 307.465 184.27 307.226 184.798C306.783 184.649 306.313 184.599 305.848 184.65C305.383 184.702 304.936 184.855 304.536 185.099C303.311 185.957 300.917 185.888 300.279 185.729C299.641 185.57 292.997 184.73 292.462 184.94C291.926 185.15 290.869 184.206 290.179 185.468C289.489 186.729 289.168 187.411 288.466 187.728C287.763 188.046 286.551 189.041 286.714 189.252C286.877 189.462 284.958 190.723 284.958 190.723C284.958 190.723 283.309 192.439 282.353 192.667C281.398 192.894 279.377 194.194 279.377 194.194L277.034 196.03C277.034 196.03 275.282 196.296 275.813 195.086C276.344 193.876 274.854 192.353 274.854 192.353C274.854 192.353 271.877 186.308 271.877 185.06C271.877 183.811 269.431 178.487 269.431 178.487L269.131 178.457L268.994 178.067C268.544 176.801 267.962 175.248 267.516 174.339C266.66 172.601 266.133 172.421 266.133 172.421C266.133 172.421 255.819 164.664 249.12 167.028C242.421 169.392 261.349 176.437 263.049 177.174C263.644 177.432 264.073 178.264 264.373 179.238C262.864 179.967 261.593 181.111 260.71 182.537C260.71 182.537 264.805 191.628 264.912 193.889C265.019 196.15 267.731 202.47 267.731 202.47C267.731 202.47 268.741 207.15 274.215 206.884C274.215 206.884 281.767 208.275 283.416 206.884C285.065 205.494 286.551 204.405 287.352 204.246C287.941 204.052 288.459 203.686 288.838 203.195C288.838 203.195 286.341 218.962 285.116 220.33C283.891 221.699 273.068 239.4 276.952 242.567C280.029 244.953 283.281 247.104 286.68 249.002C287.009 249.165 287.999 247.513 289.412 246.342C289.412 246.638 289.412 246.938 289.412 247.256C289.438 253.554 290.269 263.13 291.417 265.275C293.13 268.428 292.428 274.525 292.428 274.525C293.328 274.949 294.307 275.184 295.302 275.215C295.353 275.421 295.413 275.644 295.469 275.859C296.407 279.407 297.927 284.894 298.703 286.353C299.872 288.562 300.72 295.555 300.72 295.555C300.72 295.555 301.414 302.42 301.148 303.385C301.045 303.75 301.495 306.607 302.202 310.25C301.774 315.179 300.96 324.682 300.823 328.118C300.823 328.183 300.823 328.247 300.823 328.307V328.367C300.825 328.406 300.825 328.445 300.823 328.483C300.823 328.56 300.823 328.629 300.823 328.693C300.809 328.91 300.818 329.127 300.848 329.341C300.901 329.668 300.877 330.004 300.776 330.319C300.473 331.269 300.087 332.191 299.623 333.074C299.428 333.507 299.257 333.951 299.109 334.404C298.681 334.593 298.159 335.052 297.867 336.171C297.336 338.222 296.539 343.894 296.539 343.894C296.539 343.894 296.218 347.365 295.584 348.154C294.95 348.943 294.299 353.881 298.827 354.512C303.354 355.143 305.311 352.11 305.311 352.11L305.153 338.346V338.321C305.245 338.205 305.324 338.08 305.389 337.947V337.913C305.419 337.849 305.453 337.78 305.483 337.703L305.521 337.6L305.59 337.433C305.587 337.413 305.587 337.393 305.59 337.373C306.029 336.054 306.161 334.653 305.975 333.275V333.207V333.1C305.975 333.065 305.975 333.027 305.975 332.992V332.778C305.975 332.752 305.975 332.722 305.975 332.696C305.975 332.605 305.984 332.51 306.001 332.413C306.001 332.413 306.001 332.379 306.001 332.362L306.027 332.194V332.121C306.027 332.066 306.027 332.01 306.061 331.95C306.059 331.935 306.059 331.921 306.061 331.907C306.104 331.709 306.155 331.478 306.211 331.289V331.242L306.275 331.036C306.339 330.817 306.412 330.607 306.489 330.375V330.332C306.489 330.264 306.537 330.195 306.562 330.131V330.105C306.639 329.895 306.721 329.676 306.798 329.496L306.819 329.44L306.888 329.268L306.909 329.217L307.072 328.835L308.327 332.718C308.327 332.718 309.021 335.609 308.648 336.291C308.275 336.974 309.076 339.814 309.603 339.865L309.111 343.439C308.844 345.41 308.686 347.393 308.635 349.381C308.601 349.608 308.567 349.81 308.541 349.947C308.198 351.779 309.021 354.619 309.021 354.619C313.218 359.592 318.221 355.006 318.221 355.006C318.221 355.006 318.804 352.376 318.221 351.852C317.639 351.329 317.9 349.433 317.9 349.433C317.9 349.433 318.165 344.752 318.217 341.337C318.268 337.922 315.428 334.901 315.428 334.901L315.27 335.043C314.752 333.704 314.161 332.143 314.285 331.443C314.499 330.234 313.698 317.462 313.698 317.462C313.994 314.038 314.057 310.597 313.886 307.165V307.165C313.955 306.586 314.019 306.015 314.084 305.449C314.405 302.703 314.666 300.356 314.769 299.125V298.979C314.795 298.649 314.807 298.413 314.803 298.301C314.803 297.872 314.803 297.383 314.846 296.847C314.944 295.371 315.176 293.728 315.176 293.728L316.289 286.945C316.289 286.945 317.146 283.633 318.367 281.797L318.512 281.565C318.559 281.483 318.607 281.393 318.658 281.299L318.679 281.26C318.727 281.17 318.778 281.076 318.825 280.977L318.846 280.939C319.018 280.6 319.202 280.209 319.395 279.78C319.395 279.746 319.425 279.716 319.438 279.682L319.583 279.355C319.583 279.313 319.617 279.27 319.639 279.227C319.66 279.184 319.729 279.008 319.776 278.901C319.797 278.857 319.816 278.813 319.832 278.768C319.887 278.639 319.947 278.506 320.003 278.369L320.084 278.171C320.123 278.073 320.166 277.974 320.209 277.875L320.311 277.614C320.341 277.549 320.367 277.485 320.393 277.421L320.508 277.125C320.508 277.082 320.547 277.034 320.564 276.992C320.868 276.232 321.159 275.481 321.421 274.799C321.502 274.585 321.583 274.37 321.656 274.181C324.38 274.349 326.231 274.499 326.231 274.499C326.231 274.499 327.087 268.351 326.813 264.305C326.633 261.542 327.147 258.067 327.486 256.154C327.524 255.944 327.558 255.755 327.593 255.583L327.666 255.643C328.998 256.694 329.953 253.224 329.953 253.224C329.953 253.224 329.593 249.984 329.096 246.059L329.045 245.668C329.812 245.832 330.589 245.951 331.371 246.024C331.371 246.024 331.799 245.986 332.386 245.913C334.009 246.854 335.722 247.63 337.5 248.23L340.331 242.996C340.863 241.911 341.486 240.873 342.194 239.894C343.051 238.843 346.075 235.479 346.023 234.848C345.972 234.218 347.034 230.588 348.096 228.958C349.159 227.328 349.583 224.05 349.531 223.788ZM337.727 227.782C336.609 228.254 335.547 230.884 335.495 231.674C335.444 232.463 334.27 235.93 333.05 236.35C331.923 236.736 329.773 238.718 329.43 239.036C329.079 239.066 328.681 239.113 328.265 239.182C327.798 235.865 327.336 233.119 327.04 232.566C326.184 230.987 327.978 225.942 327.978 225.942C327.978 225.942 328.154 220.845 329.263 219.635C330.373 218.425 330.12 215.375 330.12 215.375C330.12 215.375 330.385 214.114 330.492 213.539C330.6 212.964 332.073 213.539 332.086 213.539C332.086 213.539 334.956 215.113 335.384 217.477C335.812 219.841 338.948 223.943 338.948 223.943C338.948 223.943 338.468 225.363 338.948 226.088C339.427 226.813 338.845 227.31 337.727 227.782V227.782Z" fill="url(#paint0_linear)"/>
<path d="M260.83 182.86C261.703 181.417 262.982 180.264 264.505 179.545C266.029 178.827 267.73 178.574 269.397 178.818V184.957H265.675L262.762 184.22L260.83 182.86Z" fill="#4C4981"/>
<path opacity="0.1" d="M260.83 182.86C261.703 181.417 262.982 180.264 264.505 179.545C266.029 178.827 267.73 178.574 269.397 178.818V184.957H265.675L262.762 184.22L260.83 182.86Z" fill="black"/>
<path d="M269.675 180.444L265.114 183.644C265.114 183.644 265.075 183.005 264.959 182.13C264.732 180.474 264.223 177.99 263.122 177.509C261.447 176.771 242.802 169.744 249.416 167.38C256.029 165.016 266.176 172.764 266.176 172.764C266.176 172.764 266.698 172.944 267.534 174.673C267.962 175.583 268.549 177.132 268.99 178.397C269.397 179.538 269.675 180.444 269.675 180.444Z" fill="#AE6E79"/>
<path d="M306.117 185.373L306.635 185.129L308.091 186.794L306.901 189.338L304.87 188.523L305.342 186.489L306.117 185.373Z" fill="#4C4981"/>
<path d="M299.217 334.379C299.217 334.379 297.906 334.224 297.383 336.271C296.861 338.317 296.073 343.993 296.073 343.993C296.073 343.993 295.76 347.455 295.13 348.245C294.501 349.034 293.875 353.964 298.326 354.59C302.776 355.216 304.716 352.192 304.716 352.192L304.558 338.433L299.217 334.379Z" fill="#444053"/>
<path d="M314.747 334.996C314.747 334.996 317.549 337.999 317.497 341.406C317.446 344.812 317.18 349.484 317.18 349.484C317.18 349.484 316.923 351.376 317.497 351.9C318.071 352.423 317.497 355.049 317.497 355.049C317.497 355.049 312.572 359.627 308.434 354.663C308.434 354.663 307.629 351.827 307.963 349.999C308.297 348.171 309.231 339.956 309.231 339.956L314.747 334.996Z" fill="#444053"/>
<path d="M321.686 272.259C321.686 272.259 318.859 280.179 317.651 282.015C316.443 283.852 315.613 287.164 315.613 287.164L314.512 293.929C314.297 295.442 314.174 296.967 314.143 298.494C314.195 300.017 311.419 322.207 311.419 322.207L307.02 327.822C307.02 327.822 305.084 331.757 305.397 333.4C305.71 335.043 305.187 337.651 304.54 338.437C304.54 338.437 304.438 343.585 304.279 344.73C304.121 345.876 304.857 349.141 304.279 349.716C303.701 350.291 296.004 350.033 295.794 349.085C295.584 348.137 296.736 343.576 296.736 343.576L297.417 339.17C297.417 339.17 298.779 336.759 298.467 335.97C298.154 335.18 299.041 333.348 299.092 333.19C299.144 333.031 300.561 330.461 300.3 329.466C300.039 328.47 301.949 307.302 301.949 307.302L307.342 269.372L321.686 272.259Z" fill="#AE6E79"/>
<path opacity="0.1" d="M321.686 272.26C321.686 272.26 321.258 273.452 320.671 275.018C319.737 277.489 318.392 280.892 317.651 282.016C316.448 283.852 315.608 287.164 315.608 287.164L314.507 293.934C314.295 295.447 314.173 296.971 314.143 298.499C314.143 299.099 313.741 302.931 313.227 307.345C312.434 314.094 311.419 322.211 311.419 322.211L307.02 327.827C307.02 327.827 306.798 328.256 306.519 328.934C305.967 330.221 305.187 332.31 305.397 333.387C305.71 335.013 305.187 337.635 304.54 338.424C304.54 338.424 304.433 343.572 304.279 344.718C304.125 345.863 304.857 349.124 304.279 349.703C303.701 350.282 296.004 350.02 295.794 349.077C295.584 348.133 296.736 343.568 296.736 343.568L297.417 339.158C297.417 339.158 298.779 336.746 298.463 335.957C298.146 335.168 299.041 333.336 299.092 333.177C299.144 333.018 300.561 330.448 300.3 329.453C300.099 328.694 301.157 316.265 301.649 310.37C301.816 308.517 301.923 307.311 301.923 307.311L306.562 274.679L306.939 272.049L307.316 269.381L321.686 272.26Z" fill="black"/>
<path d="M316.975 351.162C317.022 351.741 309.586 352.582 308.524 351.951C307.462 351.32 308.524 343.504 308.524 343.504L309.008 339.938C308.49 339.883 307.702 337.051 308.066 336.369C308.43 335.687 307.753 332.804 307.753 332.804L306.519 328.942L305.766 326.579C304.541 323.871 302.767 316.149 301.667 310.383C300.973 306.762 300.532 303.909 300.63 303.544C300.891 302.6 300.202 295.727 300.202 295.727C300.202 295.727 299.345 288.747 298.214 286.546C297.448 285.087 295.953 279.609 295.028 276.074C294.557 274.259 294.231 272.955 294.231 272.955C294.231 272.955 302.146 272.29 306.948 272.058C309.154 271.951 310.704 271.938 310.524 272.118C310.344 272.298 310.297 273.259 310.306 274.649C310.327 278.249 310.828 284.581 311.359 286.284C312.092 288.644 312.824 295.723 312.512 296.409C312.199 297.096 312.302 301.656 312.302 301.656C312.841 303.509 313.152 305.421 313.227 307.35C313.394 310.766 313.334 314.19 313.047 317.599C313.047 317.599 313.831 330.35 313.621 331.555C313.411 332.761 315.296 336.541 315.296 337.274C315.296 338.008 315.818 342.993 315.818 342.993C315.818 342.993 316.941 350.587 316.975 351.162Z" fill="#AE6E79"/>
<path d="M321.108 197.914L320.208 198.888L319.622 199.523L316.195 203.212L307.342 204.212L302.63 202.95L301.465 202.637C301.465 202.637 301.465 200.269 301.675 197.429C301.975 193.786 302.69 189.363 304.399 188.158C305.255 187.487 305.938 186.62 306.391 185.631C306.733 184.948 307.019 184.24 307.247 183.511C307.282 183.417 307.307 183.327 307.337 183.232C307.723 181.961 308.001 180.659 308.168 179.341C308.168 179.341 309.299 178.715 310.871 177.985C314.97 176.068 322.05 173.421 319.587 179.341C319.225 180.208 318.916 181.096 318.662 182.001C318.624 182.134 318.589 182.267 318.559 182.396C317.737 185.691 318.281 187.69 318.893 188.793C318.997 188.984 319.116 189.166 319.249 189.337C319.416 189.568 319.617 189.772 319.844 189.942L320.864 196.425L320.949 196.961L321.108 197.914Z" fill="#AE6E79"/>
<path opacity="0.1" d="M319.592 179.659C319.125 180.783 319.819 178.741 319.592 179.659C317.724 180.989 313.325 184.777 310.854 184.777C309.183 184.777 308.682 184.472 307.252 183.824C307.685 182.467 307.993 181.072 308.173 179.659C308.173 179.659 322.997 171.473 319.592 179.659Z" fill="black"/>
<path d="M323.365 172.764C323.363 175.589 322.317 178.314 320.43 180.414C318.542 182.514 315.946 183.84 313.141 184.137C312.747 184.176 312.349 184.202 311.946 184.202C309.688 184.202 307.48 183.531 305.602 182.274C303.724 181.017 302.261 179.231 301.396 177.141C300.532 175.051 300.306 172.751 300.747 170.533C301.187 168.314 302.275 166.276 303.872 164.676C305.469 163.077 307.503 161.987 309.718 161.546C311.933 161.105 314.229 161.331 316.316 162.197C318.403 163.063 320.186 164.529 321.441 166.409C322.695 168.29 323.365 170.502 323.365 172.764V172.764Z" fill="#AE6E79"/>
<path opacity="0.1" d="M324.988 223.467L323.361 227.718C323.361 227.718 322.037 227.774 319.973 227.838C313.004 228.062 297.649 228.345 296.963 226.551C296.81 226.096 296.729 225.62 296.724 225.14C296.634 222.407 297.906 218.211 297.906 218.211C297.906 218.211 298.638 209.815 298.638 209.45C298.638 209.086 298.009 203.204 298.009 203.204L299.268 198.485L302.776 196.018C302.776 196.018 304.348 198.433 305.29 198.639C306.232 198.845 307.492 200.008 307.492 200.008C307.492 200.008 310.58 201.895 311.578 200.844C312.576 199.793 320.324 195.177 320.324 195.177L324.41 199.69L324.988 223.467Z" fill="black"/>
<path d="M324.989 224.119L323.361 228.366C323.361 228.366 322.037 228.426 319.973 228.49H319.772C318.881 228.52 317.861 228.55 316.773 228.572C311.235 228.701 303.607 228.735 299.619 228.143C298.12 227.928 297.139 227.619 296.976 227.199C296.886 226.946 296.823 226.684 296.788 226.418C296.762 226.221 296.745 225.989 296.736 225.787C296.647 223.055 297.919 218.859 297.919 218.859C297.919 218.859 298.651 210.463 298.651 210.098C298.651 209.733 298.021 203.851 298.021 203.851L299.281 199.132L301.692 197.442L302.789 196.669C303.157 197.222 303.559 197.753 303.992 198.257C304.33 198.711 304.783 199.068 305.303 199.291C306.25 199.501 307.504 200.659 307.504 200.659C307.504 200.659 310.593 202.547 311.591 201.496C312.349 200.694 317.06 197.806 319.236 196.489C319.904 196.082 320.337 195.829 320.337 195.829L320.885 196.438L324.423 200.342L324.989 224.119Z" fill="white"/>
<path opacity="0.1" d="M269.675 180.444L265.114 183.644C265.114 183.644 265.075 183.005 264.959 182.13C267.212 181.178 268.583 179.071 268.977 178.397C269.397 179.539 269.675 180.444 269.675 180.444Z" fill="black"/>
<path d="M285.703 191.307L284.709 191.041C284.709 191.041 283.082 192.757 282.139 192.984C281.197 193.212 279.21 194.503 279.21 194.503L276.901 196.339C276.901 196.339 275.188 196.605 275.697 195.395C276.207 194.186 274.755 192.667 274.755 192.667C274.755 192.667 271.821 186.635 271.821 185.373C271.821 184.112 269.397 178.818 269.397 178.818C269.397 178.818 266.356 184.747 260.805 182.859C260.805 182.859 264.839 191.933 264.942 194.19C265.045 196.447 267.718 202.74 267.718 202.74C267.718 202.74 268.716 207.412 274.108 207.151C274.108 207.151 281.548 208.536 283.172 207.151C284.795 205.765 286.26 204.675 287.026 204.516C287.793 204.358 288.491 203.47 288.491 203.47V197.232L285.703 191.307Z" fill="#4C4981"/>
<path opacity="0.1" d="M276.378 197.232C276.378 197.232 277.689 202.114 276.85 202.638L276.378 197.232Z" fill="black"/>
<path opacity="0.1" d="M319.973 228.469C313.004 228.692 297.649 228.971 296.963 227.182C296.81 226.727 296.729 226.251 296.724 225.771L319.489 226.972L319.973 228.469Z" fill="black"/>
<path opacity="0.1" d="M321.686 272.259C321.686 272.259 321.258 273.452 320.671 275.018C317.78 274.842 313.951 274.658 310.314 274.632C309.029 274.632 307.77 274.632 306.579 274.675C304.052 274.752 301.868 274.958 300.476 275.353C298.716 275.895 296.876 276.133 295.036 276.056C294.565 274.241 294.24 272.937 294.24 272.937C294.24 272.937 302.155 272.272 306.956 272.041L307.333 269.372L321.686 272.259Z" fill="black"/>
<path d="M327.816 253.056L326.925 254.944C326.925 254.944 326.8 255.506 326.642 256.398C326.308 258.32 325.785 261.787 325.982 264.55C326.244 268.591 325.404 274.726 325.404 274.726C325.404 274.726 306.13 273.1 300.476 274.726C294.822 276.352 292.038 274.726 292.038 274.726C292.038 274.726 292.723 268.643 291.044 265.494C289.901 263.349 289.095 253.773 289.07 247.475C289.07 244.57 289.215 242.369 289.579 241.923C290.731 240.507 295.653 226.341 295.653 226.341L296.775 226.401L299.773 226.56L316.82 227.461L319.498 227.602L319.78 228.46L327.816 253.056Z" fill="#444053"/>
<path d="M336.3 246.758L336.459 248.44C336.459 248.44 328.017 245.685 328.445 242.3C328.873 238.915 328.445 239.297 328.445 239.297L335.23 239.872L336.3 246.758Z" fill="#4C4981"/>
<path opacity="0.1" d="M336.3 246.758L336.459 248.44C336.459 248.44 328.017 245.685 328.445 242.3C328.873 238.915 328.445 239.297 328.445 239.297L335.23 239.872L336.3 246.758Z" fill="black"/>
<path opacity="0.1" d="M282.011 198.587C282.873 199.321 283.889 199.85 284.983 200.136C284.667 200.067 284.372 199.92 284.127 199.707C283.523 199.278 282.949 198.811 282.366 198.356C281.895 197.987 281.308 197.373 280.73 197.223C281.109 197.721 281.538 198.178 282.011 198.587V198.587Z" fill="black"/>
<path opacity="0.1" d="M282.139 200.796C282.411 201.103 282.631 201.453 282.79 201.83C283.061 202.898 283.044 204.019 282.743 205.078L281.39 201.809C281.154 201.251 280.919 200.693 280.636 200.161C280.512 199.934 279.732 198.986 279.822 198.789C280.062 198.231 281.887 200.483 282.139 200.796Z" fill="black"/>
<path opacity="0.1" d="M319.904 218.902C320.827 218.79 321.69 218.386 322.367 217.748C320.975 217.924 319.656 218.473 318.285 218.761C317.013 219.057 315.679 218.933 314.482 218.409C316.058 219.181 318.225 219.207 319.904 218.902Z" fill="black"/>
<path opacity="0.1" d="M315.968 209.296C315.719 209.333 315.464 209.27 315.261 209.12C314.216 208.519 313.185 207.893 312.169 207.241C311.179 206.601 309.984 205.954 309.141 205.147C311.218 207.026 313.154 208.613 315.968 209.296Z" fill="black"/>
<path opacity="0.1" d="M318.872 220.424C319.421 220.449 319.971 220.404 320.508 220.291C321.052 220.178 321.533 219.862 321.853 219.407C321.659 219.363 321.455 219.395 321.283 219.498C319.624 220.197 317.801 220.416 316.024 220.128C316.876 220.493 317.968 220.42 318.872 220.424Z" fill="black"/>
<path opacity="0.1" d="M308.952 244.785C307.862 245.114 306.741 245.334 305.607 245.441C304.724 245.482 303.84 245.465 302.96 245.39L298.677 245.119L296.535 244.982C296.282 244.982 295.25 244.982 295.76 244.472C296.017 244.223 297.447 244.382 297.816 244.369C298.527 244.346 299.241 244.333 299.957 244.33C301.375 244.33 302.797 244.33 304.215 244.416C305.804 244.493 307.367 244.613 308.952 244.785Z" fill="black"/>
<path opacity="0.1" d="M303.988 246.909C303.26 246.879 302.322 247.312 301.572 247.406C300.734 247.506 299.889 247.539 299.045 247.505C297.376 247.465 295.727 247.128 294.175 246.51C297.443 246.677 300.72 246.776 303.988 246.909Z" fill="black"/>
<path opacity="0.1" d="M294.813 249.157C295.13 249.221 295.442 249.307 295.747 249.414C297.554 249.929 299.478 249.474 301.315 249.02C300.857 249.71 300.03 250.006 299.204 250.195C297.859 250.536 296.457 250.587 295.092 250.345C294.663 250.259 293.588 250.105 293.378 249.659C293.027 249.002 294.411 249.092 294.813 249.157Z" fill="black"/>
<path opacity="0.1" d="M304.947 252.542C305.489 252.653 306.024 252.796 306.549 252.971C308.584 253.477 310.695 252.782 312.739 252.314C315.195 251.756 317.713 251.522 320.23 251.619C319.78 251.619 319.065 252.014 318.624 252.147C318.045 252.323 317.459 252.486 316.872 252.632C315.72 252.915 314.55 253.146 313.372 253.314C310.995 253.658 308.588 253.763 306.19 253.627C305.093 253.567 303.191 253.678 302.253 253.125C303.064 252.642 304.01 252.438 304.947 252.542Z" fill="black"/>
<path opacity="0.1" d="M305.714 187.836C305.714 187.836 305.817 192.667 305.033 194.872C304.785 195.559 304.399 196.824 303.979 198.244C303.521 199.819 303.02 201.582 302.635 202.964C302.249 204.345 301.992 205.272 301.992 205.272C301.992 205.272 300.223 219.704 299.765 226.581C299.765 226.702 299.765 226.826 299.739 226.942C299.713 227.328 299.671 227.731 299.606 228.147C298.587 234.978 292.706 245.51 290.731 246.351C290.116 246.634 289.553 247.022 289.07 247.497C289.07 244.592 289.215 242.391 289.579 241.945C290.731 240.529 295.653 226.363 295.653 226.363L296.775 226.423C296.749 226.225 296.732 225.994 296.724 225.792C296.634 223.059 297.906 218.863 297.906 218.863C297.906 218.863 298.638 210.467 298.638 210.103C298.638 209.738 298.009 203.856 298.009 203.856L299.268 199.137L301.679 197.446C301.979 193.804 302.694 189.381 304.403 188.175C305.259 187.504 305.942 186.638 306.395 185.648C306.734 185.695 306.117 185.395 306.117 185.395L305.714 187.836Z" fill="black"/>
<path d="M306.635 185.129C306.198 184.979 305.734 184.929 305.276 184.981C304.817 185.033 304.376 185.186 303.984 185.429C302.776 186.287 300.42 186.214 299.79 186.06C299.161 185.905 292.616 185.06 292.081 185.271C291.545 185.481 290.509 184.537 289.828 185.798C289.147 187.06 288.834 187.737 288.153 188.051C287.472 188.364 286.264 189.363 286.44 189.574C286.615 189.784 284.726 191.041 284.726 191.041L288.547 203.483C288.547 203.483 286.084 219.219 284.881 220.584C283.677 221.948 272.99 239.628 276.815 242.777C279.843 245.162 283.048 247.313 286.401 249.212C286.829 249.423 288.337 246.591 290.432 245.699C292.526 244.806 299.024 233 299.426 226.285C299.829 219.571 301.679 204.62 301.679 204.62C301.679 204.62 303.932 196.434 304.716 194.229C305.5 192.023 305.397 187.193 305.397 187.193L306.635 185.129Z" fill="#4C4981"/>
<path opacity="0.1" d="M327.816 253.056L326.925 254.944C326.925 254.944 326.8 255.506 326.642 256.398C326.483 256.378 326.334 256.311 326.214 256.205C324.903 255.154 317.219 247.234 316.838 240.203C316.568 235.016 316.696 230.545 316.782 228.555C316.808 227.928 316.833 227.551 316.833 227.469C316.833 227.469 322.804 220.227 322.123 217.662C321.442 215.096 319.87 201.359 319.87 201.359L319.639 199.557L319.241 196.511L318.29 189.14L319.275 189.372C319.442 189.602 319.643 189.806 319.87 189.977L320.89 196.459L324.427 200.363L325.006 224.131L323.378 228.379C323.378 228.379 322.055 228.439 319.99 228.503H319.789L327.816 253.056Z" fill="black"/>
<path d="M331.114 213.822C331.114 213.822 329.649 213.243 329.546 213.822C329.443 214.401 329.178 215.654 329.178 215.654C329.178 215.654 329.439 218.7 328.321 219.906C327.203 221.111 327.036 226.2 327.036 226.2C327.036 226.2 325.271 231.236 326.107 232.811C326.411 233.381 326.882 236.243 327.353 239.675C327.653 241.82 327.948 244.176 328.21 246.329C328.685 250.242 329.041 253.481 329.041 253.481C329.041 253.481 328.094 256.944 326.783 255.892C325.473 254.841 317.789 246.922 317.412 239.89C317.155 234.952 317.257 230.661 317.343 228.546C317.377 227.65 317.412 227.143 317.412 227.143C317.412 227.143 323.382 219.901 322.701 217.332C322.02 214.762 320.448 201.029 320.448 201.029L320.174 198.905L319.879 196.623L319.81 196.121L318.864 188.827C319.031 188.866 324.907 190.196 325.682 190.972C326.458 191.749 331.251 192.86 331.251 192.86C331.974 193.056 332.631 193.443 333.153 193.981C333.676 194.518 334.046 195.186 334.223 195.915C334.27 196.061 334.305 196.215 334.339 196.374C334.968 199.42 334.767 199.784 335.195 200.312C335.624 200.84 331.114 213.822 331.114 213.822Z" fill="#4C4981"/>
<path opacity="0.1" d="M328.244 246.325C326.102 245.896 322.924 244.905 322.997 242.717C323.061 240.671 325.52 239.933 327.383 239.671C327.683 241.807 327.978 244.171 328.244 246.325Z" fill="black"/>
<path d="M334.887 245.235C334.801 245.42 334.459 245.579 333.97 245.72C332.825 245.993 331.661 246.184 330.488 246.291C330.488 246.291 323.207 245.712 323.31 242.404C323.387 240.031 326.676 239.401 328.522 239.259C328.931 239.221 329.341 239.204 329.751 239.208C329.751 239.208 335.2 244.558 334.887 245.235Z" fill="#AE6E79"/>
<path opacity="0.1" d="M334.887 245.235C334.801 245.42 334.459 245.579 333.97 245.72C332.073 243.176 329.426 239.911 328.128 239.624L328.522 239.259C328.931 239.221 329.341 239.204 329.752 239.208C329.752 239.208 335.2 244.557 334.887 245.235Z" fill="black"/>
<path d="M333.054 199.96L335.195 200.277C335.969 201.642 336.827 202.956 337.765 204.212C338.341 204.928 338.671 205.811 338.708 206.73C338.708 206.73 341.852 211.398 342.845 211.921C343.839 212.445 345.359 216.014 345.359 216.014C345.359 216.014 347.822 217.64 347.822 219.476C347.866 221.008 348.023 222.533 348.293 224.041C348.349 224.303 347.929 227.559 346.88 229.189C345.831 230.82 344.781 234.415 344.837 235.059C344.893 235.702 341.903 239.048 341.068 240.095C340.371 241.074 339.757 242.11 339.234 243.193L336.459 248.44C336.459 248.44 330.591 239.782 328.445 239.31C328.445 239.31 330.852 237.002 332.056 236.582C333.259 236.161 334.416 232.72 334.467 231.914C334.519 231.107 335.568 228.503 336.665 228.053C337.761 227.602 338.344 227.109 337.872 226.371C337.401 225.633 337.872 224.226 337.872 224.226C337.872 224.226 334.78 220.133 334.36 217.79C333.94 215.448 331.114 213.856 331.114 213.856L329.49 209.866L333.054 199.96Z" fill="#4C4981"/>
<path opacity="0.1" d="M340.845 219.545C342.03 218.543 343.522 217.976 345.073 217.94C344.079 218.112 343.034 218.331 342.306 219.026C342.02 219.327 341.763 219.654 341.539 220.004C341.29 220.36 339.269 222.934 338.969 222.527C338.468 221.93 340.438 219.893 340.845 219.545Z" fill="black"/>
<path opacity="0.1" d="M336.099 217.061C336.42 217.033 336.727 216.92 336.99 216.734C337.253 216.548 337.461 216.295 337.594 216.001C337.849 215.41 338.007 214.781 338.061 214.139C338.214 213.065 338.43 212 338.708 210.951C338.791 210.744 338.826 210.52 338.811 210.298C338.795 210.075 338.729 209.858 338.618 209.664C338.503 209.329 338.347 209.009 338.155 208.712C337.77 209.141 337.658 210.141 337.5 210.715C337.303 211.428 337.123 212.144 336.952 212.861C336.862 213.204 336.151 217.061 336.099 217.061Z" fill="black"/>
<path opacity="0.1" d="M334.244 195.88C334.033 196.157 333.79 196.407 333.521 196.627C332.664 197.309 331.529 197.884 331.422 198.961C331.452 199.31 331.408 199.663 331.293 199.994C331.019 200.466 330.347 200.423 329.811 200.333C329.36 200.293 328.927 200.133 328.556 199.87C327.995 199.39 327.944 198.531 327.516 197.927C327.255 197.614 326.927 197.366 326.555 197.202C326.184 197.038 325.78 196.961 325.374 196.978C324.573 196.953 323.776 197.133 322.975 197.167C322.461 197.193 321.944 197.159 321.438 197.064C321.27 197.039 321.105 197.004 320.941 196.961C320.583 196.873 320.233 196.754 319.896 196.605C319.721 196.536 319.551 196.455 319.386 196.365C318.85 196.089 318.353 195.743 317.908 195.335C317.124 194.614 316.473 193.619 316.538 192.551C316.576 191.894 316.872 191.29 316.966 190.642C317.287 188.788 316.058 187.038 314.726 185.712C314.195 185.185 313.629 184.674 313.098 184.138C312.271 183.374 311.618 182.44 311.184 181.4C310.826 180.294 310.71 179.124 310.841 177.968C310.961 176.797 310.994 175.618 310.94 174.442C310.545 170.272 306.99 167.075 303.435 165.338L303.277 165.256C304.332 164.044 305.63 163.068 307.086 162.392C308.543 161.717 310.126 161.356 311.731 161.335C313.336 161.314 314.928 161.632 316.402 162.268C317.877 162.905 319.2 163.846 320.287 165.03C321.373 166.214 322.198 167.614 322.707 169.139C323.217 170.664 323.4 172.279 323.243 173.879C323.087 175.48 322.596 177.029 321.801 178.427C321.007 179.824 319.927 181.037 318.632 181.988C318.594 182.121 318.559 182.254 318.529 182.383C317.707 185.678 318.251 187.677 318.863 188.78C319.031 188.818 324.907 190.148 325.682 190.925C326.458 191.701 331.25 192.813 331.25 192.813C331.979 193.007 332.642 193.394 333.168 193.934C333.695 194.474 334.067 195.146 334.244 195.88V195.88Z" fill="black"/>
<path d="M302.523 162.232C302.759 161.962 303.114 161.824 303.354 161.563C304.095 160.756 303.354 159.439 303.624 158.375C303.915 157.195 305.363 156.68 306.571 156.805C307.779 156.929 308.909 157.487 310.117 157.624C311.993 157.835 313.809 157.019 315.638 156.543C317.467 156.067 319.677 156.041 320.937 157.444C322.196 158.847 322.11 161.237 323.678 162.253C324.402 162.721 325.314 162.773 326.098 163.112C326.956 163.552 327.667 164.234 328.145 165.072C329.386 167.024 329.932 169.339 329.696 171.641C329.563 172.885 329.203 174.095 329.058 175.339C328.91 176.631 328.997 177.939 329.315 179.2C329.644 180.487 330.36 181.877 331.64 182.289C331.936 182.354 332.224 182.454 332.497 182.585C333.238 183.048 333.14 184.138 332.951 184.988L332.189 188.51C332.921 189.068 334.06 188.827 334.759 189.415C335.038 189.671 335.245 189.997 335.358 190.359C335.703 191.344 335.74 192.411 335.465 193.417C335.191 194.424 334.617 195.324 333.821 195.996C332.964 196.678 331.829 197.253 331.722 198.326C331.754 198.676 331.711 199.029 331.593 199.36C331.323 199.832 330.647 199.789 330.111 199.699C329.661 199.657 329.23 199.497 328.861 199.235C328.295 198.755 328.248 197.897 327.82 197.292C327.559 196.98 327.23 196.733 326.859 196.568C326.488 196.404 326.084 196.327 325.678 196.344C324.873 196.318 324.081 196.498 323.275 196.537C321.418 196.613 319.605 195.957 318.225 194.709C317.437 193.984 316.79 192.993 316.85 191.921C316.889 191.268 317.185 190.659 317.279 190.011C317.596 188.162 316.371 186.408 315.039 185.082C313.707 183.756 312.143 182.534 311.492 180.77C310.678 178.586 311.466 176.15 311.248 173.833C310.854 169.658 307.303 166.467 303.744 164.725C302.951 164.317 301.602 163.283 302.523 162.232Z" fill="#444053"/>
<path opacity="0.1" d="M330.535 198.261C329.97 197.776 329.923 196.923 329.494 196.318C329.234 196.006 328.905 195.758 328.534 195.592C328.163 195.427 327.759 195.35 327.353 195.365C326.548 195.339 325.751 195.52 324.95 195.558C323.086 195.64 321.265 194.982 319.883 193.726C319.095 193.006 318.452 192.01 318.512 190.942C318.551 190.285 318.846 189.676 318.941 189.033C319.262 187.179 318.033 185.425 316.7 184.099C315.368 182.773 313.809 181.551 313.154 179.787C312.344 177.608 313.154 175.171 312.914 172.85C312.516 168.675 308.965 165.483 305.41 163.742C304.579 163.334 303.23 162.3 304.151 161.249C304.382 160.979 304.737 160.841 304.977 160.58C305.718 159.777 304.977 158.456 305.251 157.396C305.304 157.185 305.396 156.986 305.521 156.809C304.626 156.976 303.808 157.482 303.59 158.34C303.328 159.404 304.061 160.721 303.32 161.528C303.08 161.79 302.724 161.927 302.489 162.193C301.568 163.244 302.917 164.282 303.748 164.686C307.307 166.427 310.858 169.624 311.252 173.794C311.471 176.115 310.683 178.552 311.496 180.735C312.147 182.494 313.711 183.739 315.043 185.047C316.375 186.356 317.613 188.123 317.283 189.977C317.102 190.604 316.959 191.241 316.855 191.886C316.795 192.954 317.441 193.949 318.23 194.67C319.61 195.926 321.429 196.585 323.292 196.502C324.098 196.463 324.89 196.288 325.695 196.309C326.101 196.294 326.505 196.372 326.876 196.537C327.247 196.702 327.576 196.95 327.837 197.261C328.265 197.866 328.312 198.724 328.878 199.205C329.247 199.465 329.678 199.624 330.128 199.664C330.664 199.763 331.34 199.797 331.61 199.329C331.706 199.138 331.748 198.925 331.73 198.712C331.299 198.669 330.887 198.514 330.535 198.261V198.261Z" fill="black"/>
<path d="M268.185 172.764H238.558V143.522H268.206L268.185 172.764ZM267.756 128.673H238.986C238.986 83.231 282.109 85.8867 282.109 57.1377C282.109 41.3024 269.17 28.6161 253.361 28.6161C237.551 28.6161 224.616 42.2934 224.616 57.5882H195.867C195.854 50.022 197.332 42.5276 200.217 35.5348C203.102 28.542 207.336 22.1884 212.678 16.8383C218.019 11.4881 224.362 7.24671 231.343 4.35724C238.325 1.46778 245.807 -0.0129132 253.361 8.48379e-05C285.116 8.48379e-05 310.854 25.3769 310.854 57.1377C310.854 93.0858 267.735 97.1787 267.735 128.673H267.756Z" fill="#00897B"/>
<path opacity="0.1" d="M120.418 164.055H112.777V156.495H120.418V164.055ZM120.302 152.686H112.892C112.892 140.973 124.007 141.656 124.007 134.238C124.003 133.267 123.809 132.307 123.434 131.412C123.06 130.517 122.513 129.704 121.824 129.021C121.136 128.338 120.32 127.797 119.424 127.429C118.527 127.062 117.566 126.875 116.597 126.88C114.641 126.925 112.777 127.728 111.399 129.12C110.02 130.512 109.234 132.385 109.205 134.345H101.795C101.844 130.45 103.419 126.73 106.181 123.987C108.943 121.245 112.671 119.699 116.56 119.684C120.449 119.669 124.188 121.185 126.972 123.906C129.755 126.627 131.359 130.334 131.439 134.229C131.417 143.496 120.302 144.551 120.302 152.669V152.686Z" fill="#00897B"/>
<path opacity="0.1" d="M178.276 216.572H170.635V209.034H178.276V216.572ZM178.164 205.207H170.755C170.755 193.49 181.869 194.177 181.869 186.759C181.866 185.789 181.671 184.829 181.296 183.934C180.921 183.039 180.374 182.227 179.686 181.544C178.998 180.861 178.182 180.32 177.285 179.954C176.388 179.587 175.428 179.4 174.459 179.405C172.494 179.441 170.62 180.241 169.233 181.635C167.846 183.03 167.056 184.911 167.028 186.879H159.618C159.667 182.984 161.243 179.264 164.005 176.522C166.767 173.779 170.494 172.234 174.383 172.218C178.272 172.203 182.012 173.719 184.795 176.44C187.578 179.161 189.183 182.869 189.262 186.763C189.275 196.03 178.164 197.09 178.164 205.207Z" fill="#00897B"/>
<path opacity="0.1" d="M213.458 123.602H207.92V118.149H213.458V123.602ZM213.377 115.361H208.006C208.006 106.874 216.062 107.368 216.062 101.996C216.059 101.293 215.917 100.598 215.646 99.9494C215.374 99.3011 214.977 98.7127 214.478 98.218C213.98 97.7232 213.389 97.3316 212.739 97.0657C212.089 96.7997 211.393 96.6646 210.691 96.6679C209.27 96.6967 207.915 97.2775 206.913 98.2876C205.911 99.2978 205.34 100.658 205.32 102.082H199.949C199.937 99.2285 201.058 96.4872 203.065 94.4612C205.071 92.4353 207.799 91.2908 210.648 91.2794C213.497 91.268 216.234 92.3907 218.257 94.4006C220.279 96.4104 221.422 99.1427 221.433 101.996C221.425 108.711 213.377 109.479 213.377 115.361V115.361Z" fill="#00897B"/>
<path opacity="0.1" d="M308.048 131.299H304.917V128.21H308.048V131.299ZM308.001 126.644H304.947C304.947 121.847 309.5 122.126 309.5 119.089C309.5 118.692 309.422 118.298 309.269 117.932C309.116 117.565 308.892 117.232 308.61 116.953C308.328 116.674 307.994 116.453 307.626 116.304C307.258 116.155 306.864 116.081 306.468 116.086C305.665 116.102 304.899 116.43 304.333 117.001C303.766 117.572 303.443 118.34 303.431 119.145H300.394C300.43 117.559 301.082 116.05 302.212 114.939C303.341 113.829 304.86 113.203 306.443 113.197C308.026 113.191 309.549 113.804 310.687 114.907C311.826 116.009 312.489 117.512 312.537 119.097C312.554 122.869 308.001 123.319 308.001 126.644V126.644Z" fill="#00897B"/>
<path opacity="0.1" d="M355.918 271.792H352.787V268.703H355.918V271.792ZM355.871 267.137H352.834C352.834 262.336 357.391 262.62 357.391 259.582C357.385 258.781 357.062 258.014 356.493 257.451C355.924 256.888 355.154 256.574 354.354 256.579C353.551 256.594 352.785 256.922 352.218 257.493C351.651 258.064 351.328 258.833 351.317 259.638H348.281C348.316 258.052 348.968 256.544 350.098 255.433C351.228 254.322 352.746 253.697 354.329 253.69C355.912 253.684 357.435 254.298 358.574 255.4C359.712 256.502 360.376 258.006 360.424 259.591C360.441 263.379 355.888 263.812 355.888 267.137H355.871Z" fill="#00897B"/>
</g>
<defs>
<linearGradient id="paint0_linear" x1="298.625" y1="356.97" x2="298.625" y2="155.865" gradientUnits="userSpaceOnUse">
<stop stop-color="#808080" stop-opacity="0.25"/>
<stop offset="0.54" stop-color="#808080" stop-opacity="0.12"/>
<stop offset="1" stop-color="#808080" stop-opacity="0.1"/>
</linearGradient>
<clipPath id="clip0">
<rect width="430" height="359" fill="white"/>
</clipPath>
</defs>
</svg>
