<svg width="406" height="280" viewBox="0 0 406 280" fill="none" xmlns="http://www.w3.org/2000/svg">
<g clip-path="url(#clip0)">
<path opacity="0.1" d="M282.839 84.1536C283.147 83.7135 283.317 83.191 283.327 82.6534C283.327 79.3958 276.705 76.7598 268.535 76.7598C260.366 76.7598 253.743 79.3958 253.743 82.6534C253.758 83.2625 253.972 83.8498 254.353 84.325C245.257 85.343 239.13 87.2504 239.13 89.4399C239.13 92.6939 252.674 95.3336 269.426 95.3336C286.179 95.3336 299.723 92.6939 299.723 89.4399C299.705 87.1361 292.819 85.118 282.839 84.1536Z" fill="#00897B"/>
<g opacity="0.2">
<path opacity="0.2" d="M324.381 254.968C324.253 255.898 324.202 256.837 324.227 257.776C330.439 257.876 336.678 258.085 342.944 258.404C342.986 258.162 343.029 257.908 343.065 257.654C343.466 255.036 343.165 252.359 342.192 249.896C340.901 246.742 338.495 244.488 335.484 244.056C332.472 243.624 329.535 245.106 327.414 247.753C325.778 249.844 324.731 252.335 324.381 254.968Z" fill="#3F3D56"/>
<path opacity="0.2" d="M345.232 242.691C346.203 235.923 342.807 229.834 337.647 229.091C332.488 228.348 327.518 233.231 326.547 239.999C325.576 246.767 328.972 252.856 334.132 253.599C339.291 254.342 344.261 249.459 345.232 242.691Z" fill="#3F3D56"/>
<path opacity="0.2" d="M347.379 227.716C348.349 220.948 344.954 214.859 339.794 214.116C334.634 213.373 329.665 218.257 328.694 225.025C327.723 231.792 331.119 237.881 336.279 238.625C341.438 239.368 346.408 234.484 347.379 227.716Z" fill="#3F3D56"/>
<path opacity="0.2" d="M349.526 212.737C350.497 205.969 347.101 199.88 341.941 199.137C336.782 198.394 331.812 203.278 330.841 210.046C329.871 216.813 333.266 222.902 338.426 223.646C343.586 224.389 348.555 219.505 349.526 212.737Z" fill="#3F3D56"/>
<path opacity="0.2" d="M351.673 197.759C352.644 190.991 349.248 184.902 344.089 184.159C338.929 183.415 333.959 188.299 332.989 195.067C332.018 201.835 335.414 207.924 340.573 208.667C345.733 209.41 350.702 204.526 351.673 197.759Z" fill="#3F3D56"/>
<path opacity="0.2" d="M391.982 98.9482C393.492 97.4985 394.901 95.9471 396.199 94.3048L372.232 86.7431L398.751 90.765C402.095 85.5774 404.347 79.7605 405.37 73.6704C406.393 67.5802 406.165 61.345 404.7 55.3462L366.433 68.7301L402.743 49.274C400.429 43.5037 396.954 38.2727 392.535 33.9067C388.115 29.5407 382.847 26.1332 377.056 23.8966C371.266 21.6599 365.078 20.642 358.878 20.9061C352.677 21.1702 346.598 22.7108 341.018 25.4318C335.438 28.1529 330.476 31.9961 326.443 36.7222C322.409 41.4483 319.39 46.956 317.573 52.9023C315.756 58.8487 315.18 65.1062 315.881 71.2853C316.582 77.4644 318.545 83.4326 321.648 88.8184C319.296 91.0667 317.193 93.5624 315.375 96.2622L344.859 117.436L312.527 101.12C309.128 107.842 307.456 115.307 307.661 122.84C307.866 130.373 309.943 137.735 313.703 144.261C307.563 150.127 303.194 157.606 301.096 165.843C298.998 174.08 299.255 182.743 301.838 190.84C304.421 198.937 309.226 206.143 315.703 211.633C322.18 217.123 330.067 220.675 338.464 221.885C346.861 223.094 355.428 221.911 363.185 218.471C370.943 215.032 377.578 209.474 382.332 202.433C387.086 195.392 389.767 187.153 390.069 178.657C390.37 170.162 388.28 161.752 384.037 154.391C391.373 147.38 396.144 138.103 397.586 128.048C399.027 117.993 397.055 107.745 391.986 98.9482H391.982Z" fill="#00897B"/>
<path opacity="0.1" d="M308.099 115.161C306.64 125.216 308.613 135.47 313.699 144.261C307.559 150.127 303.19 157.606 301.092 165.843C298.994 174.08 299.251 182.742 301.834 190.84C304.417 198.937 309.222 206.143 315.699 211.633C322.176 217.123 330.063 220.675 338.46 221.885C346.857 223.094 355.424 221.911 363.181 218.471C370.939 215.031 377.574 209.473 382.328 202.433C387.082 195.392 389.763 187.153 390.064 178.657C390.366 170.162 388.276 161.752 384.033 154.391C391.123 147.626 308.819 110.128 308.099 115.161Z" fill="black"/>
</g>
<g opacity="0.2">
<path opacity="0.2" d="M59.3312 241.727C59.472 242.534 59.6807 243.328 59.955 244.099C65.0187 242.466 70.1346 240.918 75.3029 239.456C75.2744 239.241 75.2423 239.02 75.2031 238.798C74.8371 236.524 73.8808 234.385 72.4301 232.598C70.5445 230.337 67.9925 229.129 65.4333 229.604C62.8741 230.079 60.8853 232.105 59.8694 234.905C59.1005 237.093 58.915 239.445 59.3312 241.727V241.727Z" fill="#3F3D56"/>
<path opacity="0.2" d="M66.7301 237.913C71.132 237.215 73.9452 231.865 73.0135 225.963C72.0818 220.061 67.7579 215.842 63.356 216.54C58.954 217.238 56.1408 222.588 57.0725 228.49C58.0043 234.392 62.3281 238.611 66.7301 237.913Z" fill="#3F3D56"/>
<path opacity="0.2" d="M65.5685 225.169C69.9806 224.454 72.784 219.079 71.83 213.164C70.876 207.248 66.5258 203.032 62.1137 203.747C57.7015 204.461 54.8981 209.836 55.8522 215.752C56.8062 221.667 61.1563 225.883 65.5685 225.169Z" fill="#3F3D56"/>
<path opacity="0.2" d="M62.2374 211.858C66.6394 211.16 69.4525 205.809 68.5208 199.908C67.5891 194.006 63.2653 189.787 58.8633 190.485C54.4613 191.183 51.6481 196.533 52.5799 202.435C53.5116 208.337 57.8354 212.555 62.2374 211.858Z" fill="#3F3D56"/>
<path opacity="0.2" d="M59.995 198.828C64.3969 198.13 67.2101 192.78 66.2784 186.878C65.3466 180.976 61.0228 176.757 56.6209 177.455C52.2189 178.153 49.4057 183.503 50.3374 189.405C51.2692 195.307 55.593 199.526 59.995 198.828Z" fill="#3F3D56"/>
<path opacity="0.2" d="M72.6476 93.5155C73.4877 91.8999 74.2177 90.2292 74.8325 88.5148L53.3754 88.8506L75.9589 84.8608C77.3757 79.3211 77.6041 73.5433 76.629 67.9086C75.7782 62.9222 73.9906 58.1429 71.3609 53.8247L43.8765 75.5096L68.1566 49.317C59.5737 38.8907 45.9509 33.3292 31.8933 35.9224C10.8817 39.7872 -3.11539 60.3898 0.595063 81.9283C2.0596 90.629 6.3856 98.589 12.8848 104.542C11.5707 107.061 10.5277 109.713 9.77316 112.454L39.3284 121.887L8.74308 117.276C8.10597 121.549 8.15651 125.898 8.89278 130.156C10.3573 138.857 14.6833 146.817 21.1825 152.769C17.0796 160.636 15.6802 169.639 17.2012 178.383C20.9116 199.925 40.9395 214.245 61.9369 210.37C82.9342 206.494 96.9455 185.895 93.2351 164.353C91.769 155.654 87.4432 147.696 80.9453 141.743C85.0475 133.875 86.4469 124.871 84.9267 116.125C83.4635 107.428 79.1415 99.4695 72.6476 93.5155V93.5155Z" fill="#00897B"/>
<path opacity="0.1" d="M8.90349 130.156C10.368 138.857 14.694 146.817 21.1932 152.77C17.0903 160.636 15.6909 169.639 17.2119 178.384C20.9224 199.926 40.9502 214.245 61.9476 210.37C82.9449 206.494 96.9562 185.895 93.2458 164.353C91.7797 155.654 87.4539 147.696 80.9561 141.743C84.9089 134.164 8.14786 125.78 8.90349 130.156Z" fill="black"/>
</g>
<path d="M40.5796 211.956C40.5796 230.64 52.2741 245.756 66.7274 245.756Z" fill="#46455B"/>
<path d="M66.7275 245.756C66.7275 226.865 79.78 211.577 95.9121 211.577Z" fill="#00897B"/>
<path d="M50.0537 213.648C50.0537 231.397 57.5103 245.756 66.7276 245.756Z" fill="#00897B"/>
<path d="M66.7275 245.756C66.7275 221.618 81.8153 202.083 100.46 202.083Z" fill="#46455B"/>
<path opacity="0.1" d="M188.142 265.945C288.733 265.945 370.278 263.228 370.278 259.876C370.278 256.525 288.733 253.808 188.142 253.808C87.551 253.808 6.00586 256.525 6.00586 259.876C6.00586 263.228 87.551 265.945 188.142 265.945Z" fill="#00897B"/>
<path opacity="0.1" d="M63.7084 250.553C67.3856 250.553 70.3666 250.048 70.3666 249.425C70.3666 248.801 67.3856 248.296 63.7084 248.296C60.0312 248.296 57.0503 248.801 57.0503 249.425C57.0503 250.048 60.0312 250.553 63.7084 250.553Z" fill="#00897B"/>
<path d="M59.2354 244.181C59.2354 244.181 63.0349 244.067 64.179 243.249C65.3232 242.431 70.0174 241.463 70.3025 242.767C70.5877 244.071 76.0054 249.282 71.7283 249.314C67.4511 249.346 61.7696 248.646 60.6254 247.95C59.4813 247.253 59.2354 244.181 59.2354 244.181Z" fill="#A8A8A8"/>
<path opacity="0.2" d="M71.7996 248.861C67.5224 248.893 61.8373 248.189 60.6967 247.492C59.827 246.964 59.4777 245.056 59.3637 244.178H59.2354C59.2354 244.178 59.4777 247.25 60.6183 247.946C61.7589 248.643 67.4368 249.346 71.7211 249.311C72.958 249.311 73.3857 248.861 73.3643 248.207C73.1932 248.607 72.7191 248.853 71.7996 248.861Z" fill="black"/>
<path d="M245.057 71.0624C239.942 45.802 218.022 26.771 191.354 26.771C170.164 26.771 151.897 38.8511 142.761 56.4176C120.841 58.6143 103.672 77.2846 103.672 99.9946C103.672 124.155 123.397 143.929 147.513 143.929H242.502C262.594 143.929 279.036 127.452 279.036 107.317C279.074 98.0653 275.573 89.1506 269.253 82.4069C262.933 75.6631 254.274 71.6032 245.057 71.0624V71.0624ZM203.041 92.6544V120.479H179.659V92.6544H154.816L191.35 56.0604L227.884 92.6723L203.041 92.6544Z" fill="#00897B"/>
<path d="M155.621 88.4756C155.265 86.4361 155.44 84.2394 154.506 82.4034C154.415 82.1867 154.269 81.9981 154.082 81.8569C153.849 81.731 153.587 81.6705 153.322 81.6819C152.478 81.6497 151.637 81.639 150.792 81.6605C150.557 81.6605 150.279 81.6962 150.157 81.9033C150.143 81.9254 150.132 81.9495 150.125 81.9748C149.159 80.9032 148.429 79.5495 147.388 78.5493C147.538 78.4993 147.684 78.4529 147.837 78.4136C147.837 78.31 147.801 78.2136 147.78 78.1136C147.78 78.0814 147.762 78.0528 147.755 78.0243C147.748 77.9957 147.723 77.8886 147.702 77.8207C147.68 77.7528 147.68 77.7528 147.666 77.7207C147.648 77.6565 147.626 77.5933 147.602 77.5314C147.602 77.4992 147.577 77.4671 147.563 77.4349L147.488 77.2456L147.445 77.1563C147.416 77.092 147.388 77.0277 147.356 76.967L147.313 76.8884C147.281 76.8206 147.245 76.7527 147.21 76.6848L147.174 76.6205C147.135 76.5491 147.092 76.4777 147.053 76.4026C147.043 76.391 147.034 76.3777 147.028 76.3633C146.982 76.2812 146.932 76.199 146.882 76.1205C146.475 75.4561 146.026 74.8024 145.695 74.1202C145.114 72.9201 144.921 71.5663 144.533 70.2876C144.144 69.0088 143.464 67.7087 142.309 67.0979C141.749 66.8121 141.001 66.5585 140.947 65.9263C140.945 65.7231 140.988 65.522 141.072 65.3369C141.232 64.9273 141.427 64.5318 141.653 64.1547C141.738 64.0189 141.828 63.8832 141.917 63.7475L141.988 63.651C142.059 63.551 142.134 63.451 142.209 63.3581L142.302 63.2403C142.376 63.1474 142.455 63.0617 142.533 62.9724L142.63 62.8688C142.74 62.7509 142.851 62.6366 142.968 62.5116C143.076 62.428 143.162 62.3188 143.218 62.1937C143.249 62.0699 143.255 61.9412 143.235 61.8151C143.178 60.7935 143.713 59.8398 144.305 59.0183C144.896 58.1967 145.595 57.4181 145.934 56.4572C145.973 56.3465 146.005 56.2358 146.033 56.1215C146.044 56.0851 146.052 56.0481 146.058 56.0108C146.076 55.9357 146.09 55.8607 146.105 55.7822L146.126 55.6536C146.126 55.5821 146.144 55.5107 146.151 55.4428V55.3035V55.0928V54.9535C146.151 54.8856 146.151 54.8142 146.151 54.7427C146.151 54.6713 146.151 54.6534 146.151 54.607C146.151 54.5606 146.151 54.457 146.133 54.382V54.2605C146.133 54.1748 146.108 54.0855 146.098 53.9998C146.098 53.9712 146.098 53.9426 146.098 53.9141C146.081 53.7974 146.06 53.6783 146.033 53.5569C145.864 52.798 145.645 52.0511 145.378 51.3209C145.236 50.8723 145.054 50.4373 144.836 50.0207C144.968 49.9957 145.103 49.9671 145.235 49.9314C145.13 49.7673 145.034 49.598 144.946 49.4242C145.767 48.2132 146.382 46.8748 146.768 45.463C146.972 44.4545 147.091 43.4305 147.124 42.4019C147.32 39.3086 147.52 36.2011 147.263 33.115V32.9935C147.359 32.3307 147.367 31.658 147.285 30.9933C147.202 29.693 146.819 28.4298 146.165 27.3035C145.474 26.2105 144.333 25.2461 143.064 25.1175C142.855 25.3536 142.623 25.5689 142.373 25.7605C141.991 25.4242 141.711 24.9874 141.564 24.4996C143.045 24.2666 144.41 23.5525 145.447 22.4671C146.484 21.3818 147.137 19.9851 147.306 18.4917C147.306 18.381 147.331 18.2667 147.338 18.1559C147.338 18.1095 147.338 18.0631 147.338 18.0166C147.338 17.9702 147.338 17.8845 147.338 17.8202C147.338 17.7559 147.338 17.7023 147.338 17.6416V17.4951C147.338 17.4273 147.338 17.3558 147.338 17.288C147.338 17.2201 147.338 17.213 147.338 17.1772C147.338 17.1415 147.338 17.0201 147.317 16.9451C147.318 16.9177 147.318 16.8903 147.317 16.8629L147.285 16.6129V16.5593C147.285 16.47 147.256 16.3807 147.238 16.2914V16.2628C147.22 16.1664 147.199 16.0735 147.174 15.9771C147.015 15.3269 146.761 14.7036 146.422 14.1268C146.701 13.4958 146.883 12.8263 146.964 12.1409C146.964 12.0159 146.989 11.8944 146.996 11.7837C147.003 11.673 146.996 11.6265 146.996 11.5479C146.996 11.4694 146.996 11.4694 146.996 11.4336C146.996 11.3301 146.996 11.2265 146.996 11.1265C146.994 11.1158 146.994 11.105 146.996 11.0943C146.944 9.37778 146.26 7.74127 145.075 6.50087C145.211 6.27449 145.324 6.0352 145.413 5.7865V5.7865C145.442 5.71149 145.467 5.63648 145.488 5.5579C145.51 5.48289 145.531 5.41145 145.549 5.33644V5.31858L145.591 5.11498C145.589 5.10316 145.589 5.09108 145.591 5.07926C145.591 5.00068 145.616 4.91853 145.627 4.83637C145.638 4.75422 145.627 4.6685 145.649 4.58634C145.649 4.56134 145.649 4.53276 145.649 4.50776C145.649 4.48276 145.649 4.38989 145.649 4.33274V4.24702C145.649 4.18987 145.649 4.12914 145.649 4.07199C145.649 4.01484 145.649 4.02199 145.649 3.99698C145.588 2.93583 145.132 1.93633 144.369 1.19774C143.606 0.459139 142.594 0.0356937 141.533 0.0118102C140.473 -0.0120733 139.443 0.365359 138.648 1.06887C137.853 1.77238 137.351 2.7503 137.244 3.80767C137.192 4.23941 137.206 4.67644 137.283 5.10427C136.247 5.61075 135.354 6.36948 134.686 7.31107C134.018 8.25267 133.596 9.34708 133.459 10.4942C133.414 10.8783 133.401 11.2653 133.419 11.6515C132.804 12.6186 132.437 13.7228 132.35 14.8662V14.8662C132.35 14.9091 132.35 14.952 132.35 14.9948C132.35 15.1377 132.332 15.2841 132.332 15.427C132.329 16.4849 132.567 17.5296 133.029 18.4811C133.49 19.4326 134.163 20.2658 134.995 20.917C135.343 21.4799 135.801 21.966 136.342 22.3458C136.44 22.6367 136.513 22.9354 136.56 23.2387C136.599 23.6465 136.546 24.058 136.404 24.4423C136.262 24.8265 136.035 25.1734 135.74 25.4569C135.586 25.5855 135.415 25.6926 135.255 25.8141C135.093 25.7677 134.921 25.7677 134.76 25.8141C132.92 26.3927 131.16 27.5393 130.315 29.2931C130.128 29.692 129.98 30.1083 129.873 30.5361L129.773 30.6897C128.656 32.4417 127.853 34.3757 127.399 36.4047C127.168 37.4441 127.021 38.5228 126.537 39.4694C126.421 39.6669 126.326 39.8765 126.255 40.0944C126.214 40.4273 126.2 40.763 126.212 41.0981C126.162 41.7054 125.81 42.2447 125.692 42.8412C125.621 43.1984 125.635 43.5556 125.574 43.9128C125.404 44.5264 125.181 45.124 124.908 45.6987C124.53 46.7489 124.534 47.9026 124.252 48.9849C124.218 49.1631 124.142 49.3308 124.031 49.4742C123.808 49.6484 123.557 49.7836 123.29 49.8743C123.094 49.9973 122.926 50.1605 122.798 50.3532C122.669 50.5459 122.583 50.7637 122.545 50.9923C122.47 51.4531 122.462 51.9221 122.52 52.3853L122.659 54.1962L120.634 54.8106L117.312 55.8286C116.339 56.0753 115.409 56.4691 114.553 56.9966C113.791 57.5286 113.19 58.26 112.814 59.1111C112.477 59.9986 112.26 60.9272 112.169 61.8722C111.848 64.5162 111.276 67.1236 110.462 69.6589C110.394 69.8518 110.323 70.0483 110.251 70.2411L110.027 70.8091C110.009 70.8484 109.991 70.8877 109.977 70.9269L109.784 71.3806C109.699 71.5735 109.61 71.7628 109.517 71.9521L117.298 74.5524C117.298 74.6453 117.316 74.7453 117.33 74.856C117.601 76.7705 117.469 78.7137 117.719 80.6318C117.751 80.9506 117.824 81.2639 117.936 81.564C117.738 81.7355 117.596 81.9617 117.526 82.2141C117.438 82.6227 117.425 83.0438 117.487 83.4571C117.576 84.4358 117.662 85.4145 117.751 86.3932C117.793 86.7491 117.793 87.1088 117.751 87.4648C117.654 88.1113 117.284 88.6792 117.081 89.2971C116.877 89.9151 116.888 90.708 117.398 91.0831C117.576 91.2049 117.782 91.2791 117.996 91.2985C118.211 91.3179 118.427 91.2818 118.624 91.1938C119.017 91.0128 119.364 90.7454 119.64 90.4116C121.204 88.6685 121.907 86.3146 123.122 84.3037C123.435 83.84 123.714 83.3541 123.956 82.8499C124.124 82.4606 124.231 82.0462 124.366 81.6426C124.553 81.1051 124.777 80.5812 125.036 80.0745C125.182 79.7852 125.749 79.0887 125.621 78.7672C125.421 78.2136 123.286 77.7278 122.769 77.5564C122.44 77.4089 122.066 77.3923 121.725 77.5099C121.674 77.5345 121.626 77.5658 121.582 77.6028L121.401 75.2418C121.718 75.2132 122.031 75.1739 122.341 75.1203C122.341 74.6774 122.331 74.2309 122.309 73.7809C122.309 73.3737 122.292 72.9629 122.281 72.5522C122.26 71.552 122.238 70.5519 122.213 69.5696C122.207 68.9906 122.17 68.4124 122.103 67.8373C121.981 66.9622 121.714 66.1049 121.629 65.2226C121.757 65.1204 121.909 65.0517 122.071 65.0226V65.0226C122.32 64.9825 122.574 64.9729 122.826 64.994H123.026C124.132 64.9778 125.216 64.6778 126.173 64.1225C127.153 63.6117 128.062 62.9724 129.025 62.4473L129.381 62.258L129.516 62.1901L129.745 62.0758L129.933 61.9865L129.976 61.9651C130.543 61.6936 131.117 61.4293 131.666 61.1328C131.703 61.1934 131.743 61.2518 131.787 61.3079C131.92 61.4894 132.104 61.6273 132.315 61.7043C132.526 61.7812 132.756 61.7936 132.974 61.7401C132.3 63.3653 131.509 64.9369 131.309 66.6943C131.017 69.2339 132.022 71.6949 133.024 74.0595L136.192 81.5604C136.549 82.3891 137.009 83.3178 137.875 83.5143C138.425 83.5886 138.985 83.4767 139.464 83.1964C140.915 82.5034 142.22 81.5104 143.549 80.5817L143.603 80.6246C144.804 81.5747 145.556 82.8999 146.386 84.1679L148.607 87.8255C148.592 88.0088 148.622 88.1929 148.696 88.3613C148.858 88.6642 149.069 88.9381 149.32 89.1721C150.731 90.6954 151.661 92.6031 151.993 94.655C152.022 95.1804 152.173 95.6918 152.435 96.148C153.03 96.9767 154.299 96.9231 155.194 96.4516C155.47 96.3249 155.709 96.1279 155.885 95.8801C156.035 95.6138 156.13 95.3198 156.163 95.0157C156.327 94.2595 156.416 93.4891 156.431 92.7154C156.416 91.3117 155.878 89.9151 155.621 88.4756ZM142.872 21.1742C143.027 21.0716 143.177 20.9607 143.321 20.842C143.02 21.7488 142.535 22.5832 141.895 23.2923V23.2923C141.746 23.4566 141.585 23.6102 141.421 23.7602V23.6459C141.403 23.2887 141.421 22.8923 141.421 22.5136C141.993 22.1733 142.487 21.7171 142.872 21.1742V21.1742ZM130.286 49.3599L130.308 49.292C130.434 49.3834 130.544 49.4957 130.632 49.6242C130.546 49.816 130.505 50.0254 130.514 50.2356C130.522 50.4458 130.58 50.6511 130.682 50.8351C130.867 51.1494 131.202 51.4423 131.131 51.8031C131.06 52.1638 130.604 52.3067 130.233 52.3674C129.745 52.446 129.263 52.5353 128.782 52.6318C128.782 52.6318 128.782 52.6318 128.782 52.6068C128.793 52.2042 128.739 51.8026 128.622 51.4173C129.452 51.0601 129.966 50.21 130.286 49.3599Z" fill="url(#paint0_linear)"/>
<path d="M145.121 7.77576C145.441 7.23319 145.636 6.62597 145.692 5.99828C145.749 5.37059 145.665 4.73821 145.446 4.14717C145.228 3.55612 144.881 3.02128 144.431 2.58154C143.98 2.14181 143.438 1.80825 142.842 1.60514C142.247 1.40202 141.614 1.33447 140.989 1.40738C140.364 1.48029 139.764 1.69183 139.231 2.02663C138.698 2.36142 138.247 2.81103 137.909 3.34275C137.571 3.87447 137.356 4.47492 137.28 5.10042C137.226 5.52731 137.239 5.9599 137.319 6.38272C136.108 6.95784 135.094 7.88019 134.406 9.03297C133.718 10.1858 133.387 11.5171 133.455 12.8585C132.882 13.748 132.524 14.759 132.408 15.8114C132.293 16.8638 132.424 17.9287 132.791 18.9215C133.158 19.9143 133.751 20.8078 134.522 21.5312C135.294 22.2545 136.223 22.7878 137.235 23.0888C138.248 23.3897 139.317 23.45 140.357 23.265C141.398 23.0799 142.38 22.6545 143.228 22.0226C144.076 21.3906 144.765 20.5694 145.241 19.6242C145.716 18.6789 145.966 17.6356 145.969 16.5769C145.969 16.4661 145.969 16.359 145.969 16.2518C146.811 14.9543 147.188 13.4083 147.037 11.8679C146.886 10.3275 146.217 8.88437 145.139 7.77576H145.121Z" fill="#46455B"/>
<g opacity="0.1">
<path opacity="0.1" d="M137.269 5.30829L137.326 5.27615C137.311 5.20292 137.301 5.129 137.294 5.05469C137.292 5.07012 137.292 5.08569 137.294 5.10112C137.282 5.16968 137.273 5.23884 137.269 5.30829V5.30829Z" fill="black"/>
<path opacity="0.1" d="M147.003 12.2446C146.88 13.2807 146.52 14.2744 145.952 15.1485C145.952 15.2557 145.952 15.3629 145.952 15.47C145.943 17.2242 145.26 18.9077 144.045 20.1701C142.829 21.4324 141.175 22.1765 139.426 22.2473C137.677 22.3182 135.968 21.7104 134.654 20.5505C133.341 19.3906 132.525 17.7679 132.375 16.0201C132.375 16.2058 132.35 16.3773 132.35 16.5773C132.35 18.3848 133.067 20.1183 134.342 21.3963C135.617 22.6744 137.347 23.3925 139.151 23.3925C140.954 23.3925 142.684 22.6744 143.96 21.3963C145.235 20.1183 145.952 18.3848 145.952 16.5773C145.952 16.4666 145.952 16.3594 145.952 16.2523C146.521 15.3788 146.881 14.3848 147.003 13.3483C147.059 12.8921 147.068 12.4312 147.028 11.9731C147.039 12.0624 147.017 12.1553 147.003 12.2446Z" fill="black"/>
<path opacity="0.1" d="M145.681 5.05078C145.606 5.6238 145.416 6.17557 145.121 6.67242C145.242 6.79386 145.353 6.92245 145.478 7.05104C145.586 6.74968 145.66 6.43692 145.698 6.11877C145.739 5.76352 145.733 5.40448 145.681 5.05078V5.05078Z" fill="black"/>
</g>
<path d="M117.718 80.8923C117.751 81.28 117.856 81.6581 118.029 82.0067C118.115 82.1809 118.243 82.3318 118.399 82.4467C118.556 82.5617 118.738 82.6374 118.93 82.6675C119.283 82.6697 119.628 82.5692 119.925 82.3782C120.527 82.0603 121.158 81.6924 121.472 81.0852C121.785 80.4779 121.735 79.7993 121.682 79.1385L121.276 73.9414C120.299 73.9128 119.315 73.9128 118.335 73.9664C117.355 74.02 117.194 74.2486 117.33 75.1987C117.597 77.0846 117.455 79.0028 117.718 80.8923Z" fill="#FBBEBE"/>
<path d="M146.454 84.4035L148.782 88.1754C148.883 88.3955 149.066 88.5673 149.291 88.6541C149.458 88.6792 149.628 88.6491 149.776 88.5684C150.529 88.1728 151.191 87.6227 151.719 86.9539C152.141 86.5603 152.461 86.07 152.652 85.5251C152.728 85.2229 152.725 84.9064 152.644 84.6056C152.563 84.3049 152.406 84.03 152.189 83.807C151.92 83.5668 151.627 83.3538 151.316 83.1712C149.473 81.9247 148.643 79.5601 146.825 78.2813C146.723 78.1955 146.6 78.1399 146.468 78.1206C146.333 78.1301 146.203 78.1744 146.09 78.2492L143.595 79.6136C142.526 80.203 142.858 80.2744 143.677 80.9102C144.871 81.8461 145.613 83.1534 146.454 84.4035Z" fill="#FBBEBE"/>
<path d="M122.776 77.8851C122.445 77.7412 122.072 77.7284 121.732 77.8494C121.581 77.9412 121.454 78.0666 121.359 78.2159C121.264 78.3652 121.205 78.5344 121.187 78.7102C121.122 79.0674 121.13 79.4246 121.033 79.7568C120.819 80.3103 120.469 80.8013 120.018 81.1855C119.847 81.3874 119.627 81.5413 119.38 81.632C119.041 81.7177 118.685 81.5606 118.342 81.632C118.143 81.6841 117.962 81.7893 117.819 81.9366C117.675 82.0838 117.574 82.2674 117.526 82.4678C117.436 82.8701 117.423 83.2858 117.487 83.693L117.751 86.5862C117.794 86.9421 117.794 87.3019 117.751 87.6578C117.654 88.2971 117.284 88.8544 117.081 89.4652C116.877 90.0759 116.885 90.8546 117.398 91.2511C117.577 91.3708 117.784 91.4434 117.999 91.4621C118.214 91.4808 118.43 91.4451 118.627 91.3583C119.02 91.1812 119.367 90.9174 119.643 90.5867C121.212 88.8722 121.914 86.5469 123.133 84.5681C123.444 84.1124 123.723 83.635 123.967 83.1394C124.134 82.7536 124.241 82.3464 124.377 81.9499C124.564 81.419 124.789 80.9021 125.05 80.4033C125.193 80.1175 125.763 79.4317 125.635 79.1138C125.446 78.5352 123.304 78.053 122.776 77.8851Z" fill="#46455B"/>
<path d="M151.08 85.8755C150.728 86.5429 150.137 87.053 149.427 87.3042C149.222 87.3605 149.031 87.4591 148.867 87.5935C148.759 87.7253 148.692 87.8859 148.674 88.0554C148.657 88.2249 148.689 88.3959 148.767 88.5472C148.931 88.8469 149.143 89.1173 149.394 89.3473C150.802 90.8423 151.733 92.7239 152.068 94.7516C152.1 95.2713 152.253 95.7763 152.513 96.2268C153.108 97.0448 154.381 96.9912 155.279 96.5233C155.553 96.3979 155.791 96.205 155.971 95.9625C156.121 95.7 156.215 95.4094 156.249 95.1088C156.412 94.3634 156.502 93.6037 156.516 92.8406C156.516 91.4119 155.96 90.0224 155.703 88.608C155.347 86.597 155.518 84.4288 154.584 82.6143C154.496 82.3972 154.352 82.2073 154.167 82.0643C153.932 81.9406 153.669 81.8814 153.404 81.8928C152.563 81.8607 151.715 81.8535 150.87 81.8714C150.635 81.8714 150.357 81.9071 150.236 82.1107C150.193 82.2243 150.179 82.3468 150.196 82.4671C150.212 82.5873 150.257 82.7017 150.328 82.8001C150.845 83.8252 151.693 84.636 151.08 85.8755Z" fill="#46455B"/>
<path d="M131.028 49.8349C130.792 50.0305 130.632 50.3028 130.576 50.6043C130.52 50.9059 130.571 51.2175 130.721 51.4851C130.91 51.7958 131.245 52.0851 131.17 52.4423C131.095 52.7995 130.643 52.9352 130.272 52.996C127 53.5175 123.813 54.4783 120.648 55.4356L117.319 56.4393C116.345 56.6804 115.412 57.0682 114.553 57.5894C113.793 58.1095 113.191 58.8302 112.814 59.6718C112.476 60.5455 112.258 61.4611 112.165 62.3936C111.666 65.8047 111.028 69.2445 109.51 72.3377L117.576 74.9916C118.359 75.2788 119.17 75.4823 119.996 75.5988C120.783 75.6661 121.575 75.6277 122.352 75.4845C122.302 73.6807 122.27 71.8198 122.22 70.0124C122.215 69.4417 122.179 68.8716 122.11 68.3051C121.988 67.4407 121.721 66.5977 121.636 65.7262C121.992 65.419 122.552 65.4976 123.033 65.5083C124.14 65.4933 125.226 65.1997 126.191 64.6546C127.167 64.1474 128.08 63.5187 129.042 63.0008C130.664 62.14 132.51 61.5721 133.751 60.204C133.12 62.6151 131.612 64.7153 131.338 67.1906C131.063 69.6659 132.05 72.1377 133.059 74.4487L136.235 81.8354C136.591 82.6497 137.051 83.5677 137.917 83.7606C138.468 83.8327 139.028 83.7223 139.511 83.4463C142.433 82.0747 144.772 79.4922 147.894 78.6707C147.659 77.1205 146.44 75.8382 145.755 74.4344C145.171 73.2521 144.982 71.9162 144.593 70.6554C144.205 69.3945 143.524 68.1122 142.362 67.5121C141.802 67.2299 141.05 66.9799 141 66.3548C140.996 66.1536 141.038 65.9541 141.125 65.7726C141.542 64.7182 142.192 63.7719 143.025 63.0044C143.131 62.92 143.216 62.8125 143.274 62.6901C143.302 62.573 143.308 62.452 143.292 62.3329C143.232 61.3256 143.77 60.3862 144.362 59.5754C144.953 58.7646 145.655 57.9966 145.994 57.0501C146.575 55.4177 145.994 53.6246 145.424 51.9923C145.236 51.3149 144.911 50.6837 144.469 50.1385C143.72 49.3384 142.558 49.1062 141.467 48.9847C137.957 48.5847 133.825 47.6596 131.028 49.8349Z" fill="#46455B"/>
<g opacity="0.1">
<path opacity="0.1" d="M144.372 56.9822C143.773 57.793 143.235 58.7324 143.303 59.7396C143.319 59.8588 143.312 59.9798 143.285 60.0968C143.227 60.2193 143.142 60.3268 143.036 60.4112C142.202 61.1787 141.553 62.125 141.136 63.1794C141.049 63.361 141.007 63.5604 141.011 63.7616C141.048 63.9506 141.133 64.1269 141.258 64.2734C141.383 64.4198 141.543 64.5314 141.724 64.5974C142.087 64.0028 142.531 63.4618 143.043 62.9901C143.149 62.9057 143.234 62.7982 143.292 62.6757C143.32 62.5587 143.326 62.4377 143.31 62.3186C143.249 61.3113 143.788 60.3719 144.379 59.5611C144.971 58.7502 145.673 57.9823 146.012 57.0357C146.304 56.1096 146.333 55.1203 146.097 54.1782C146.074 54.2711 146.045 54.364 146.012 54.4568C145.666 55.4034 144.975 56.1749 144.372 56.9822Z" fill="black"/>
<path opacity="0.1" d="M130.66 50.3242C130.779 50.3002 130.889 50.2448 130.978 50.1637C131.068 50.0827 131.134 49.979 131.17 49.8634C131.177 49.8173 131.177 49.7703 131.17 49.7241L131.017 49.8349C130.86 49.966 130.737 50.1341 130.66 50.3242V50.3242Z" fill="black"/>
<path opacity="0.1" d="M119.996 73.0197C119.17 72.9032 118.359 72.6996 117.576 72.4125L110.447 70.0693C110.178 70.8436 109.862 71.601 109.503 72.3375L117.576 74.9914C118.359 75.2785 119.17 75.4821 119.996 75.5986C120.783 75.6659 121.575 75.6275 122.352 75.4843C122.327 74.6378 122.309 73.777 122.288 72.9161C121.532 73.0505 120.761 73.0853 119.996 73.0197V73.0197Z" fill="black"/>
<path opacity="0.1" d="M139.521 80.8674C139.039 81.1435 138.479 81.2538 137.928 81.1817C137.062 80.9888 136.595 80.0709 136.246 79.2565L133.07 71.8698C132.357 70.2446 131.662 68.5551 131.405 66.8228C131.384 66.9442 131.366 67.0656 131.348 67.1799C131.06 69.6803 132.061 72.127 133.07 74.438L136.246 81.8247C136.602 82.6391 137.062 83.557 137.928 83.7499C138.479 83.822 139.039 83.7117 139.521 83.4356C142.444 82.064 144.782 79.4815 147.905 78.66C147.742 77.8487 147.416 77.0793 146.946 76.399C144.287 77.4455 142.137 79.6351 139.521 80.8674Z" fill="black"/>
<path opacity="0.1" d="M133.761 57.625C132.521 58.9823 130.675 59.561 129.053 60.4218C128.08 60.9397 127.167 61.5684 126.201 62.0756C125.237 62.6218 124.151 62.9165 123.043 62.9328C122.562 62.9328 122.02 62.8399 121.646 63.1471C121.725 63.9508 121.956 64.733 122.088 65.5296C122.405 65.4867 122.725 65.4795 123.043 65.5081C124.151 65.4931 125.237 65.1996 126.201 64.6545C127.178 64.1473 128.091 63.5186 129.053 63.0007C130.122 62.4327 131.288 61.9898 132.314 61.3612C132.884 60.1518 133.368 58.9032 133.761 57.625V57.625Z" fill="black"/>
</g>
<path d="M136.592 24.2708C136.631 24.6732 136.577 25.0792 136.435 25.4576C136.293 25.836 136.066 26.1766 135.772 26.4532C135.576 26.6211 135.344 26.7461 135.155 26.9211C134.985 27.0953 134.855 27.3045 134.775 27.5342C134.694 27.7638 134.664 28.0084 134.687 28.2508C134.71 28.4933 134.785 28.7277 134.908 28.9379C135.031 29.1481 135.198 29.329 135.398 29.4678C136.039 29.8608 136.855 29.7536 137.597 29.625C138.585 29.4883 139.554 29.2353 140.484 28.8713C141.419 28.504 142.215 27.8503 142.758 27.0032C142.367 26.7536 142.045 26.4108 141.819 26.0056C141.593 25.6005 141.471 25.1455 141.464 24.6815C141.414 23.7564 141.667 22.7063 141.083 21.9883C140.498 21.2704 139.461 21.3025 138.588 21.5383C138.156 21.6597 137.739 21.824 137.308 21.9419C137.087 21.999 136.367 22.0026 136.239 22.1633C135.989 22.4562 136.567 23.8028 136.592 24.2708Z" fill="#FBBEBE"/>
<path opacity="0.1" d="M136.592 24.2708C136.631 24.6732 136.577 25.0792 136.435 25.4576C136.293 25.836 136.066 26.1766 135.772 26.4532C135.576 26.6211 135.344 26.7461 135.155 26.9211C134.985 27.0953 134.855 27.3045 134.775 27.5342C134.694 27.7638 134.664 28.0084 134.687 28.2508C134.71 28.4933 134.785 28.7277 134.908 28.9379C135.031 29.1481 135.198 29.329 135.398 29.4678C136.039 29.8608 136.855 29.7536 137.597 29.625C138.585 29.4883 139.554 29.2353 140.484 28.8713C141.419 28.504 142.215 27.8503 142.758 27.0032C142.367 26.7536 142.045 26.4108 141.819 26.0056C141.593 25.6005 141.471 25.1455 141.464 24.6815C141.414 23.7564 141.667 22.7063 141.083 21.9883C140.498 21.2704 139.461 21.3025 138.588 21.5383C138.156 21.6597 137.739 21.824 137.308 21.9419C137.087 21.999 136.367 22.0026 136.239 22.1633C135.989 22.4562 136.567 23.8028 136.592 24.2708Z" fill="black"/>
<path d="M139.069 24.2209C141.709 24.2209 143.849 22.0764 143.849 19.431C143.849 16.7856 141.709 14.6411 139.069 14.6411C136.429 14.6411 134.289 16.7856 134.289 19.431C134.289 22.0764 136.429 24.2209 139.069 24.2209Z" fill="#FBBEBE"/>
<path d="M123.978 56.1714C123.893 56.5528 123.741 56.9158 123.528 57.243C122.969 58.2344 122.768 59.3885 122.958 60.5113C123.058 61.0678 123.294 61.5911 123.644 62.0347C123.994 62.4782 124.448 62.8285 124.965 63.0544C125.181 63.1624 125.422 63.2113 125.662 63.1962C125.903 63.1812 126.136 63.1027 126.337 62.9687C125.699 62.1365 125.663 61.0006 125.703 59.9505C125.691 59.7547 125.737 59.5598 125.835 59.3897C125.861 59.3498 125.896 59.3157 125.936 59.2894C125.976 59.2632 126.021 59.2454 126.069 59.2371C126.116 59.2287 126.164 59.23 126.211 59.2409C126.258 59.2518 126.302 59.272 126.341 59.3004C126.323 59.9619 126.451 60.6192 126.715 61.2256C126.815 61.4578 126.986 61.715 127.242 61.7078C127.599 61.7078 127.702 61.2042 127.688 60.8399C127.635 59.354 127.56 57.8073 126.847 56.5072C126.533 56.0613 126.292 55.5682 126.134 55.0463C126.129 54.8605 126.064 54.6814 125.949 54.5355C125.87 54.4735 125.779 54.4307 125.681 54.4105C125.271 54.2926 124.295 53.9319 123.956 54.3176C123.618 54.7034 124.042 55.6785 123.978 56.1714Z" fill="#FBBEBE"/>
<path d="M131.074 30.7292C130.525 30.6649 130.094 31.1685 129.794 31.6329C128.674 33.361 127.868 35.274 127.414 37.2836C127.182 38.3087 127.039 39.3732 126.551 40.3054C126.435 40.4992 126.34 40.7053 126.269 40.9198C126.23 41.2492 126.216 41.5812 126.227 41.9128C126.177 42.5093 125.824 43.0415 125.706 43.6309C125.635 43.988 125.649 44.3452 125.585 44.7024C125.478 45.3168 125.139 45.8669 124.922 46.4562C124.541 47.4921 124.544 48.6279 124.263 49.6959C124.228 49.8709 124.153 50.0351 124.042 50.1745C123.853 50.3853 123.546 50.4353 123.3 50.571C123.104 50.6909 122.936 50.8514 122.807 51.0418C122.678 51.2321 122.591 51.4479 122.552 51.6747C122.477 52.1283 122.469 52.5903 122.527 53.0463L122.748 55.8789C122.972 55.7824 123.104 55.5217 123.311 55.3681C123.667 55.0823 124.163 55.1466 124.605 55.2252L125.25 55.3431C125.909 55.4609 126.626 55.6145 127.032 56.136C127.367 55.6074 127.178 54.8323 127.692 54.4822C127.859 54.3679 128.069 54.3322 128.244 54.2322C128.41 54.1241 128.549 53.9774 128.647 53.8046C128.745 53.6318 128.8 53.4379 128.807 53.2392C128.818 52.8414 128.764 52.4445 128.647 52.0641C129.474 51.7069 129.987 50.8746 130.311 50.0352C130.666 49.0191 130.924 47.9714 131.081 46.9063C131.826 42.695 132.507 38.4552 132.578 34.1796C132.625 33.4655 132.547 32.7485 132.347 32.0615C132.126 31.3829 131.783 30.8078 131.074 30.7292Z" fill="#00897B"/>
<path opacity="0.1" d="M131.074 30.7292C130.525 30.6649 130.094 31.1685 129.794 31.6329C128.674 33.361 127.868 35.274 127.414 37.2836C127.182 38.3087 127.039 39.3732 126.551 40.3054C126.435 40.4992 126.34 40.7053 126.269 40.9198C126.23 41.2492 126.216 41.5812 126.227 41.9128C126.177 42.5093 125.824 43.0415 125.706 43.6309C125.635 43.988 125.649 44.3452 125.585 44.7024C125.478 45.3168 125.139 45.8669 124.922 46.4562C124.541 47.4921 124.544 48.6279 124.263 49.6959C124.228 49.8709 124.153 50.0351 124.042 50.1745C123.853 50.3853 123.546 50.4353 123.3 50.571C123.104 50.6909 122.936 50.8514 122.807 51.0418C122.678 51.2321 122.591 51.4479 122.552 51.6747C122.477 52.1283 122.469 52.5903 122.527 53.0463L122.748 55.8789C122.972 55.7824 123.104 55.5217 123.311 55.3681C123.667 55.0823 124.163 55.1466 124.605 55.2252L125.25 55.3431C125.909 55.4609 126.626 55.6145 127.032 56.136C127.367 55.6074 127.178 54.8323 127.692 54.4822C127.859 54.3679 128.069 54.3322 128.244 54.2322C128.41 54.1241 128.549 53.9774 128.647 53.8046C128.745 53.6318 128.8 53.4379 128.807 53.2392C128.818 52.8414 128.764 52.4445 128.647 52.0641C129.474 51.7069 129.987 50.8746 130.311 50.0352C130.666 49.0191 130.924 47.9714 131.081 46.9063C131.826 42.695 132.507 38.4552 132.578 34.1796C132.625 33.4655 132.547 32.7485 132.347 32.0615C132.126 31.3829 131.783 30.8078 131.074 30.7292Z" fill="black"/>
<path d="M143.118 26.1426C142.329 26.9713 141.322 27.5585 140.213 27.8356C139.108 28.1085 137.981 28.2747 136.845 28.3321C136.496 28.389 136.138 28.3584 135.804 28.2428C135.639 28.1792 135.504 28.0567 135.424 27.8991C135.345 27.7414 135.326 27.5597 135.373 27.3892C135.433 27.2866 135.475 27.1742 135.497 27.057C135.497 26.7641 135.062 26.7391 134.784 26.8248C132.945 27.3963 131.181 28.525 130.333 30.2574C129.904 31.2615 129.637 32.3272 129.541 33.4149C129.142 36.2724 128.743 39.155 129.278 41.9875C129.566 43.4912 130.115 44.9521 130.147 46.4809C130.169 47.3381 130.022 48.1918 130.03 49.0491C130.005 49.3492 130.086 49.6485 130.258 49.8956C130.39 50.0492 130.589 50.1456 130.682 50.3278C130.835 50.6278 130.628 51.0422 130.832 51.3172C131.085 51.653 131.605 51.4101 131.951 51.1743C133.685 49.9948 135.779 49.4672 137.864 49.6849C140.359 49.9528 142.854 51.2922 145.285 50.6207C145.159 50.4387 145.052 50.2449 144.964 50.0421C143.752 46.0558 143.834 41.5945 145.648 37.8441C146.265 36.5618 147.074 35.3437 147.324 33.9364C147.419 33.2796 147.428 32.613 147.349 31.954C147.264 30.6694 146.879 29.4226 146.226 28.3143C145.538 27.2177 144.394 26.2712 143.118 26.1426Z" fill="#00897B"/>
<path d="M131.559 57.4039C131.366 57.9259 131.272 58.4797 131.284 59.0363C131.268 59.5674 131.294 60.0989 131.363 60.6258C131.405 61.0767 131.566 61.5083 131.83 61.8759C131.964 62.0569 132.149 62.1938 132.361 62.2695C132.573 62.3451 132.802 62.3561 133.02 62.301C133.191 62.229 133.343 62.1198 133.467 61.9814C133.59 61.8431 133.681 61.6789 133.733 61.5009C133.836 61.1426 133.912 60.7773 133.961 60.4079C134.168 59.3363 134.738 58.3005 134.749 57.1932C134.756 57.0618 134.735 56.9303 134.688 56.8074C134.482 56.3538 133.466 55.843 132.97 55.918C132.357 56.0145 131.787 56.8789 131.559 57.4039Z" fill="#FBBEBE"/>
<path opacity="0.1" d="M145.349 30.186C145.256 31.1397 146.176 31.8577 146.54 32.7399C146.687 33.1536 146.771 33.5871 146.789 34.0258C147.046 37.0726 146.846 40.1337 146.646 43.1806C146.617 44.1952 146.498 45.2053 146.29 46.1988C145.777 48.2812 144.508 50.0886 143.278 51.8388C143.092 52.1255 142.876 52.3913 142.633 52.6318C142.27 52.9266 141.867 53.1672 141.435 53.3461L137.194 55.4071C136.662 55.6421 136.157 55.933 135.686 56.2751C135.14 56.7039 134.711 57.2642 134.439 57.9039C133.615 57.4824 132.76 57.1038 131.944 56.6823C131.751 56.5823 131.534 56.4537 131.502 56.2394C131.459 55.9536 131.758 55.75 131.965 55.525C132.35 55.1428 132.468 54.5749 132.678 54.0748C133.362 52.4317 135.077 51.3816 135.697 49.7171C135.936 49.0777 136.007 48.3526 136.431 47.8169C136.673 47.5484 136.944 47.3087 137.24 47.1025C137.89 46.5466 138.487 45.9307 139.022 45.263C139.265 45.0111 139.464 44.7201 139.61 44.4021C139.746 43.912 139.793 43.4015 139.749 42.8948C139.782 41.2303 140.534 39.6801 140.993 38.0799C141.425 36.5761 141.607 34.9974 142.173 33.5365C142.74 32.0756 143.831 30.5789 145.349 30.186Z" fill="black"/>
<path d="M145.902 30.186C145.809 31.1397 146.725 31.8577 147.089 32.7399C147.237 33.1534 147.322 33.5869 147.342 34.0258C147.595 37.0726 147.399 40.1337 147.199 43.1806C147.164 44.1958 147.039 45.2059 146.825 46.1988C146.311 48.2812 145.043 50.0886 143.813 51.8388C143.627 52.1255 143.41 52.3913 143.168 52.6318C142.805 52.9266 142.402 53.1672 141.97 53.3461L137.725 55.4071C137.194 55.6436 136.689 55.9345 136.217 56.2751C135.672 56.7048 135.243 57.2649 134.97 57.9039C134.147 57.4824 133.295 57.1038 132.475 56.6823C132.282 56.5823 132.065 56.4537 132.033 56.2394C131.987 55.9536 132.286 55.75 132.493 55.525C132.881 55.1428 132.999 54.5749 133.206 54.0748C133.886 52.4317 135.604 51.3816 136.225 49.7171C136.463 49.0777 136.535 48.3526 136.959 47.8169C137.199 47.5467 137.47 47.3068 137.768 47.1025C138.418 46.5466 139.015 45.9307 139.55 45.263C139.793 45.0111 139.992 44.7201 140.138 44.4021C140.272 43.9117 140.319 43.4015 140.277 42.8948C140.309 41.2303 141.058 39.6801 141.518 38.0799C141.952 36.5761 142.131 34.9974 142.697 33.5365C143.264 32.0756 144.39 30.5789 145.902 30.186Z" fill="#00897B"/>
<path d="M141.435 12.0266C139.963 11.8474 138.473 12.1573 137.194 12.9089C137.383 12.9089 137.572 12.9088 137.761 12.9517C139.175 13.123 140.499 13.7348 141.548 14.701C142.596 15.6671 143.316 16.9388 143.604 18.3365C143.893 19.7343 143.736 21.1876 143.157 22.4914C142.577 23.7952 141.603 24.8837 140.373 25.6033C142.121 25.6594 143.823 25.0387 145.126 23.8701C146.429 22.7015 147.233 21.0749 147.37 19.328C147.508 17.5812 146.969 15.8483 145.865 14.4893C144.761 13.1303 143.177 12.2496 141.443 12.0302L141.435 12.0266Z" fill="#46455B"/>
<path d="M143.528 15.8162C143.693 16.1907 143.783 16.5943 143.792 17.0038C143.802 17.4133 143.73 17.8206 143.581 18.2022C143.549 18.1057 143.513 18.0093 143.471 17.9128C142.629 16.0376 140.042 15.2625 137.686 16.1805C137.059 16.4034 136.487 16.7563 136.006 17.216C135.525 17.6758 135.147 18.2322 134.895 18.8487C134.296 17.0342 135.512 14.9553 137.746 14.0838C140.099 13.1658 142.687 13.9409 143.528 15.8162Z" fill="#46455B"/>
<g opacity="0.1">
<path opacity="0.1" d="M143.542 18.0561C143.434 16.7404 142.947 15.4845 142.14 14.4409C141.333 13.3973 140.241 12.6107 138.997 12.1768C138.365 12.3266 137.758 12.5672 137.194 12.8911C137.383 12.8911 137.572 12.8911 137.761 12.934C139.129 13.0998 140.414 13.6784 141.447 14.5932C142.479 15.5079 143.21 16.7156 143.542 18.0561V18.0561Z" fill="black"/>
<path opacity="0.1" d="M144.643 13.0805C144.534 11.7651 144.047 10.5097 143.24 9.46616C142.434 8.42267 141.342 7.63592 140.099 7.20117C139.466 7.35945 138.858 7.60721 138.295 7.93698C138.484 7.93698 138.673 7.93698 138.865 7.97984C140.23 8.14434 141.513 8.71996 142.545 9.63066C143.577 10.5414 144.308 11.7443 144.643 13.0805V13.0805Z" fill="black"/>
<path opacity="0.1" d="M144.672 5.65451C144.603 4.86394 144.308 4.11006 143.822 3.48386C143.336 2.85766 142.679 2.38589 141.931 2.12549C141.548 2.21857 141.181 2.36654 140.84 2.56483C140.954 2.56483 141.068 2.56483 141.197 2.5934C142.016 2.69358 142.786 3.0394 143.406 3.5856C144.026 4.1318 144.467 4.85291 144.672 5.65451V5.65451Z" fill="black"/>
<path opacity="0.1" d="M147.217 17.1274C147.348 18.7616 146.888 20.3886 145.921 21.7108C144.953 23.033 143.543 23.9622 141.949 24.3284C141.489 24.8281 140.958 25.2566 140.373 25.5999C141.428 25.6385 142.477 25.4307 143.437 24.9928C144.398 24.5549 145.243 23.8991 145.907 23.0772C146.571 22.2552 147.035 21.2897 147.262 20.2571C147.49 19.2245 147.474 18.153 147.217 17.1274Z" fill="black"/>
</g>
<path d="M207.521 88.4611C207.086 88.1002 206.545 87.8902 205.98 87.8625C205.416 87.8348 204.857 87.9909 204.388 88.3075C203.675 88.8362 203.365 89.7149 203.073 90.5436C202.645 91.7687 201.954 92.9581 201.84 94.2547C201.523 97.8266 199.024 100.831 198.275 104.331C198.001 105.581 197.948 106.896 197.431 108.064C197.183 108.576 196.897 109.07 196.575 109.539C195.322 111.514 194.248 113.597 193.367 115.765C192.747 115.954 192.238 116.55 191.742 117.025C191.107 117.635 190.346 118.098 189.514 118.383C189.175 118.459 188.859 118.614 188.591 118.836C188.235 119.215 188.235 119.826 187.939 120.265C187.729 120.553 187.449 120.783 187.126 120.933C187.104 120.832 187.088 120.729 187.076 120.626C187.002 120.079 186.941 119.533 186.884 118.986C187.714 117.773 188.085 116.303 187.931 114.84C187.777 113.377 187.107 112.016 186.043 111.003C185.977 110.151 186.002 109.293 186.118 108.446C186.17 108.242 186.165 108.028 186.102 107.827C186.039 107.626 185.921 107.447 185.761 107.31C185.587 107.199 185.373 107.174 185.187 107.081C184.919 106.901 184.69 106.666 184.517 106.392C184.016 105.823 183.331 105.45 182.582 105.339C181.833 105.228 181.069 105.386 180.425 105.785C179.427 106.453 178.9 107.639 178.048 108.492C177.606 108.932 177.082 109.278 176.644 109.717C175.767 110.659 175.197 111.847 175.011 113.121C174.828 114.389 174.777 115.672 174.858 116.95C174.849 117.338 174.905 117.724 175.022 118.093C175.149 118.396 175.325 118.676 175.542 118.922C176.587 120.287 177.967 121.357 179.549 122.026C179.56 122.102 179.566 122.178 179.566 122.255C179.566 122.373 179.566 122.49 179.538 122.612L179.363 122.583C178.722 122.505 178.044 122.583 177.449 122.337C176.433 121.898 176.023 120.605 175.022 120.097C174.939 120.053 174.852 120.018 174.762 119.99C174.524 118.325 174.035 116.707 173.311 115.19C172.955 114.475 172.552 113.732 172.509 112.925C172.531 112.174 172.7 111.436 173.005 110.75C173.81 108.296 174.446 105.79 174.908 103.249C175.231 101.656 175.557 100.063 175.884 98.4696C176.327 98.0663 176.717 97.6091 177.046 97.1087C177.733 96.1132 178.135 94.9484 178.208 93.7404C178.24 93.138 178.153 92.5352 177.951 91.9669C177.749 91.3986 177.437 90.876 177.032 90.4292C176.854 90.2115 176.63 90.035 176.378 89.9117C176.125 89.7884 175.848 89.7213 175.567 89.7149C175.325 89.7435 175.091 89.8217 174.88 89.9446C174.669 90.0674 174.486 90.2324 174.341 90.4292C173.906 91.04 173.591 91.7287 173.414 92.4581C173.058 93.6439 172.702 94.8798 172.862 96.1085C173.008 97.1265 173.504 98.2302 172.997 99.1232C171.329 102.049 170.178 105.338 168.941 108.474C168.622 109.227 168.362 110.003 168.164 110.796C167.917 112.074 167.873 113.384 168.036 114.675C168.329 117.097 168.795 119.495 169.43 121.851C169.69 122.923 169.996 124.055 170.609 124.937C170.392 126.134 170.339 127.355 170.452 128.566C170.467 128.846 170.54 129.12 170.666 129.37C170.871 129.658 171.118 129.912 171.401 130.124C171.783 130.48 172.085 130.914 172.286 131.397C172.487 131.88 172.582 132.401 172.566 132.924C172.583 133.902 172.773 134.869 173.126 135.781C173.978 138.328 174.833 140.875 175.578 143.457C175.739 143.936 175.828 144.435 175.842 144.94C175.842 145.654 175.503 146.369 175.66 147.083C175.78 147.406 175.877 147.736 175.952 148.072C175.958 148.332 175.924 148.591 175.852 148.84C175.389 150.858 174.049 155.513 174.281 157.574L174.74 157.413C174.544 160.142 173.703 162.813 173.397 165.542C173.195 167.529 173.217 169.533 173.461 171.515C173.594 172.401 173.67 173.294 173.689 174.19C173.689 174.994 173.561 175.787 173.528 176.587C173.512 177.661 173.576 178.736 173.717 179.801C173.857 181.473 174.123 183.131 174.512 184.763C175.254 187.534 174.755 190.421 174.837 193.292C174.932 195.296 174.912 197.303 174.776 199.304C174.701 200.15 174.584 200.993 174.559 201.843C174.484 204.365 175.229 206.876 174.965 209.384C174.84 210.559 174.541 211.884 175.279 212.809C175.514 213.098 175.831 213.306 176.081 213.581C176.216 213.709 176.316 213.87 176.371 214.048C176.425 214.227 176.432 214.417 176.391 214.599C176.294 214.881 176.034 215.088 175.974 215.384C175.906 215.849 176.416 216.17 176.858 216.32L176.982 216.356C176.973 216.511 176.997 216.666 177.051 216.811C177.106 216.957 177.19 217.089 177.3 217.199C177.576 217.411 177.905 217.542 178.251 217.578L183.954 218.685C185.227 218.931 186.61 219.164 187.804 218.731C187.85 218.904 187.942 219.061 188.071 219.185C188.346 219.396 188.674 219.527 189.019 219.564L194.722 220.671C196.176 220.953 197.773 221.214 199.07 220.492C199.444 220.292 199.76 219.998 199.986 219.639C200.168 219.298 200.274 218.922 200.296 218.536C200.317 218.151 200.254 217.765 200.111 217.406C200.002 217.039 199.78 216.715 199.477 216.481C199.072 216.258 198.611 216.159 198.151 216.195C197.76 216.224 197.368 216.164 197.003 216.02C196.891 215.961 196.794 215.879 196.718 215.777C197.003 215.42 197.277 215.063 197.538 214.706C197.292 214.649 197.181 214.309 197.121 214.059C196.386 210.352 197.417 206.558 197.566 202.772C197.642 200.877 197.494 198.979 197.124 197.118C196.985 196.403 196.818 195.725 196.718 195.018C196.194 191.328 197.595 187.581 197.149 183.88C196.939 182.152 197.68 180.344 197.944 178.623C198.176 177.094 198.026 175.537 197.876 173.979L196.697 161.835C196.536 160.195 196.369 158.517 195.67 157.023C195.321 156.189 195.156 155.288 195.185 154.384C196.611 153.566 197.923 152.441 199.534 152.437C199.844 151.258 198.953 147.54 198.432 146.44C196.403 142.103 195.6 137.29 196.112 132.527C196.301 130.817 195.62 129.091 195.848 127.384C195.882 126.984 195.994 126.595 196.176 126.237C196.268 126.06 196.403 125.91 196.569 125.799C196.735 125.688 196.926 125.622 197.124 125.605C197.024 124.58 196.893 123.548 196.718 122.523C197.305 121.923 197.786 121.229 198.144 120.469C198.885 118.915 199.213 117.201 199.644 115.536C200.428 112.604 201.626 109.803 202.574 106.924C203.522 104.045 203.337 101.002 204.018 98.0445C204.402 96.4152 205.398 94.9967 206.798 94.0833C207.34 93.7261 207.956 93.4511 208.33 92.9224C208.613 92.4879 208.761 91.9799 208.758 91.4615C208.79 90.9004 208.696 90.3393 208.482 89.8198C208.267 89.3004 207.939 88.836 207.521 88.4611V88.4611ZM185.736 213.434C185.843 213.288 185.947 213.141 186.043 212.988C185.665 212.966 185.187 212.745 185.141 212.366C185.13 211.987 185.172 211.608 185.266 211.241C185.373 210.584 185.333 209.912 185.148 209.273C185.016 208.83 184.82 208.405 184.678 207.962C184.538 207.468 184.427 206.966 184.346 206.458C183.997 204.644 183.453 202.873 182.724 201.176C182.012 199.529 182.564 197.732 182.571 195.936C182.571 195.089 182.443 194.225 182.657 193.403C182.781 192.917 183.013 192.467 183.145 191.974C183.437 190.842 183.07 189.653 182.71 188.542C184.118 185.206 184.307 181.398 184.596 177.769C184.757 175.74 184.919 173.716 185.08 171.697C185.152 170.793 185.234 169.854 185.708 169.082C186.55 171.662 187.052 174.341 187.201 177.051C187.216 177.834 187.307 178.614 187.472 179.38C187.697 180.226 188.135 180.994 188.427 181.816C189.076 183.623 189.008 185.599 189.301 187.495C189.418 188.263 189.596 189.02 189.71 189.788C190.202 193.178 189.407 196.611 188.616 199.943C188.131 201.986 188.21 204.247 188.099 206.344C187.996 208.355 187.889 210.366 187.939 212.381C187.939 212.995 187.978 213.624 187.971 214.249C187.777 214.225 187.582 214.215 187.387 214.216C186.996 214.245 186.603 214.185 186.239 214.041C186.013 213.896 185.838 213.684 185.736 213.434V213.434Z" fill="url(#paint1_linear)"/>
<path d="M198.169 216.221C198.628 216.185 199.089 216.283 199.494 216.503C199.796 216.737 200.017 217.059 200.129 217.424C200.271 217.781 200.333 218.164 200.311 218.548C200.289 218.931 200.183 219.305 200.001 219.642C199.774 220 199.458 220.292 199.085 220.489C197.787 221.203 196.19 220.95 194.736 220.671L189.033 219.575C188.689 219.545 188.36 219.421 188.082 219.217C187.908 219.027 187.799 218.786 187.769 218.53C187.739 218.274 187.79 218.015 187.914 217.789C188.163 217.338 188.533 216.966 188.983 216.717C190.623 215.696 192.548 215.288 194.43 215.07C195.142 214.985 195.809 214.756 196.344 215.253C196.629 215.513 196.614 215.838 197.014 216.049C197.381 216.191 197.776 216.25 198.169 216.221Z" fill="#3F3D56"/>
<path d="M187.394 214.256C187.852 214.221 188.312 214.319 188.716 214.538C189.02 214.77 189.242 215.093 189.351 215.46C189.494 215.816 189.558 216.199 189.536 216.583C189.515 216.966 189.409 217.34 189.226 217.678C188.998 218.034 188.683 218.326 188.31 218.525C187.012 219.239 185.416 218.985 183.958 218.707L178.255 217.607C177.911 217.577 177.582 217.453 177.303 217.249C177.129 217.059 177.019 216.819 176.989 216.562C176.958 216.306 177.008 216.047 177.132 215.821C177.389 215.369 177.765 214.998 178.219 214.749C179.855 213.731 181.784 213.338 183.666 213.106C184.378 213.017 185.045 212.792 185.58 213.285C185.861 213.545 185.85 213.87 186.246 214.081C186.611 214.224 187.003 214.284 187.394 214.256V214.256Z" fill="#3F3D56"/>
<path d="M185.989 153.534C182.693 153.548 179.401 153.799 176.141 154.288C175.926 154.308 175.715 154.363 175.517 154.452C174.826 154.809 174.804 155.781 174.822 156.559C174.869 159.728 173.789 162.796 173.432 165.939C173.228 167.913 173.248 169.903 173.493 171.872C173.622 172.754 173.698 173.642 173.721 174.533C173.721 175.326 173.589 176.116 173.557 176.912C173.54 177.975 173.602 179.037 173.742 180.091C173.882 181.752 174.148 183.4 174.537 185.02C175.275 187.774 174.776 190.642 174.854 193.493C174.949 195.483 174.927 197.477 174.787 199.465C174.712 200.308 174.594 201.144 174.569 201.99C174.494 204.491 175.236 206.991 174.972 209.491C174.847 210.656 174.544 211.992 175.282 212.892C175.517 213.177 175.835 213.385 176.08 213.66C176.215 213.786 176.315 213.945 176.37 214.122C176.425 214.298 176.433 214.486 176.394 214.667C176.294 214.949 176.02 215.156 175.977 215.449C175.906 215.91 176.416 216.231 176.858 216.378C178.541 216.895 180.347 216.853 182.004 216.256C183.661 215.659 185.08 214.54 186.05 213.067C185.672 213.045 185.194 212.824 185.148 212.449C185.137 212.072 185.179 211.696 185.273 211.331C185.382 210.679 185.342 210.011 185.155 209.377C185.027 208.934 184.827 208.513 184.688 208.073C184.549 207.582 184.439 207.084 184.357 206.58C184.01 204.776 183.467 203.015 182.739 201.329C182.026 199.694 182.582 197.908 182.589 196.129C182.589 195.286 182.464 194.425 182.674 193.611C182.799 193.125 183.031 192.678 183.166 192.182C183.459 191.057 183.092 189.878 182.732 188.774C184.157 185.46 184.335 181.659 184.624 178.059L185.112 171.986C185.184 171.09 185.269 170.154 185.74 169.39C186.582 171.951 187.084 174.612 187.233 177.305C187.245 178.085 187.335 178.861 187.501 179.623C187.725 180.459 188.16 181.223 188.456 182.041C189.101 183.827 189.033 185.795 189.325 187.681C189.443 188.446 189.618 189.196 189.732 189.96C190.224 193.328 189.425 196.747 188.63 200.051C188.146 202.08 188.221 204.337 188.11 206.412C188.003 208.409 187.896 210.406 187.946 212.406C187.989 214.245 188.131 216.221 187.144 217.764C188.249 218.328 189.39 218.903 190.623 219.01C192.058 219.087 193.474 218.657 194.626 217.796C195.765 216.936 196.756 215.895 197.559 214.713C197.31 214.656 197.203 214.317 197.142 214.07C196.408 210.388 197.441 206.605 197.595 202.855C197.67 200.972 197.523 199.087 197.156 197.24C197.017 196.525 196.846 195.85 196.746 195.15C196.23 191.485 197.63 187.76 197.188 184.077C196.982 182.356 197.723 180.563 197.987 178.848C198.218 177.33 198.072 175.783 197.923 174.255L196.75 162.199C196.593 160.567 196.426 158.899 195.727 157.417C194.893 155.631 195.41 153.431 195.321 151.462C192.376 152.761 189.205 153.465 185.989 153.534V153.534Z" fill="#46455B"/>
<path d="M192.875 117.833C193.846 115.178 195.105 112.638 196.632 110.261C196.954 109.794 197.24 109.303 197.488 108.792C198.008 107.635 198.062 106.328 198.336 105.085C199.102 101.606 201.604 98.6198 201.925 95.0836C202.039 93.7942 202.731 92.6119 203.162 91.3938C203.451 90.5687 203.779 89.6972 204.477 89.1721C204.946 88.8586 205.503 88.704 206.067 88.731C206.63 88.758 207.17 88.9652 207.607 89.3222C208.033 89.6923 208.369 90.1556 208.589 90.6765C208.808 91.1973 208.905 91.7617 208.872 92.3261C208.873 92.8409 208.725 93.345 208.444 93.7763C208.067 94.3014 207.454 94.5835 206.912 94.93C205.515 95.8326 204.518 97.2396 204.128 98.8591C203.444 101.799 203.629 104.817 202.677 107.678C201.726 110.539 200.539 113.325 199.744 116.251C199.298 117.904 198.981 119.608 198.236 121.151C197.491 122.694 196.226 124.087 194.561 124.484C194.456 123.422 194.182 122.383 193.749 121.408C193.25 120.28 192.455 118.98 192.875 117.833Z" fill="#A0616A"/>
<path d="M174.943 121.908C174.806 119.821 174.268 117.78 173.361 115.897C173.004 115.182 172.605 114.468 172.562 113.65C172.584 112.904 172.753 112.17 173.058 111.489C173.865 109.047 174.502 106.551 174.965 104.02L175.949 99.2697C176.389 98.8692 176.778 98.4157 177.107 97.9195C177.795 96.9324 178.198 95.7744 178.272 94.5727C178.305 93.9732 178.219 93.3731 178.017 92.8076C177.816 92.2421 177.504 91.7226 177.1 91.2794C176.919 91.0658 176.695 90.8934 176.442 90.7738C176.19 90.6543 175.914 90.5904 175.635 90.5864C175.393 90.6151 175.159 90.6932 174.948 90.8161C174.737 90.939 174.553 91.104 174.409 91.3008C173.98 91.9029 173.672 92.582 173.5 93.3011C173.143 94.4798 172.787 95.7049 172.944 96.9265C173.086 97.9374 173.585 99.0339 173.076 99.9198C171.404 102.831 170.253 106.096 169.012 109.207C168.695 109.954 168.437 110.726 168.239 111.514C167.989 112.785 167.943 114.087 168.103 115.372C168.395 117.783 168.86 120.171 169.494 122.515C169.85 123.987 170.296 125.587 171.529 126.47C172.545 124.841 173.571 123.244 174.943 121.908Z" fill="#A0616A"/>
<path d="M181.898 122.319C185.277 122.319 188.017 119.573 188.017 116.186C188.017 112.799 185.277 110.053 181.898 110.053C178.518 110.053 175.778 112.799 175.778 116.186C175.778 119.573 178.518 122.319 181.898 122.319Z" fill="#A0616A"/>
<path d="M179.613 122.912C179.577 124.03 179.092 125.077 178.615 126.091C178.326 126.702 177.948 127.384 177.289 127.52C179.145 128.264 181.071 128.818 183.038 129.174C183.711 129.325 184.405 129.365 185.091 129.291C185.668 129.188 186.222 128.982 186.727 128.684C187.835 128.055 188.785 127.181 189.506 126.129C190.226 125.077 190.699 123.874 190.887 122.612C190.132 122.711 189.368 122.731 188.609 122.673C188.18 122.685 187.762 122.53 187.444 122.241C187.243 121.961 187.129 121.628 187.116 121.283C186.98 120.269 186.872 119.252 186.791 118.233C185.286 118.291 183.805 118.632 182.425 119.237C181.855 119.487 181.299 119.776 180.711 119.99C180.354 120.119 179.324 120.144 179.075 120.376C178.69 120.744 179.634 122.141 179.613 122.912Z" fill="#A0616A"/>
<path d="M182.682 126.341C182.532 125.547 182.136 124.82 181.552 124.263C180.967 123.706 180.223 123.347 179.424 123.237C178.782 123.162 178.105 123.237 177.51 122.998C176.494 122.559 176.066 121.276 175.083 120.773C174.099 120.269 172.823 120.737 172.096 121.58C171.369 122.423 171.062 123.569 170.841 124.641C170.498 126.127 170.387 127.657 170.51 129.177C170.527 129.456 170.601 129.729 170.727 129.977C170.931 130.263 171.178 130.516 171.458 130.728C171.84 131.08 172.142 131.51 172.343 131.99C172.544 132.469 172.639 132.987 172.623 133.506C172.636 134.485 172.824 135.453 173.179 136.364C174.031 138.893 174.887 141.425 175.628 143.99C175.79 144.464 175.879 144.96 175.892 145.462C175.874 146.176 175.535 146.89 175.71 147.587C175.826 147.908 175.923 148.236 175.999 148.569C176.005 148.827 175.971 149.085 175.899 149.333C175.432 151.341 174.092 155.963 174.323 158.01C177.364 156.888 181.951 156.224 185.173 155.866C186.059 155.764 186.951 155.712 187.843 155.709C189.981 155.709 192.223 156.113 194.219 155.327C196.069 154.613 197.605 152.891 199.594 152.884C199.904 151.716 199.013 148.023 198.497 146.93C196.469 142.625 195.67 137.842 196.187 133.11C196.372 131.41 195.695 129.695 195.927 127.999C195.96 127.601 196.07 127.214 196.251 126.859C196.345 126.683 196.481 126.533 196.647 126.422C196.813 126.312 197.004 126.245 197.203 126.227C196.966 123.567 196.446 120.94 195.652 118.39C195.364 117.483 194.843 116.433 193.895 116.372C193.04 116.315 192.409 117.087 191.792 117.69C191.156 118.295 190.395 118.755 189.564 119.037C189.224 119.112 188.906 119.267 188.638 119.49C188.281 119.865 188.281 120.476 187.985 120.919C187.472 121.712 186.16 121.787 185.847 122.673C185.781 122.933 185.734 123.198 185.708 123.466C185.562 123.987 185.27 124.456 184.867 124.816C184.276 125.498 183.525 126.022 182.682 126.341V126.341Z" fill="#2F2E41"/>
<path d="M186.171 109.189C186.224 108.987 186.218 108.774 186.155 108.575C186.092 108.376 185.974 108.198 185.815 108.064C185.627 107.975 185.434 107.898 185.237 107.832C184.97 107.649 184.743 107.413 184.571 107.139C184.069 106.572 183.384 106.201 182.636 106.091C181.888 105.981 181.125 106.14 180.482 106.538C179.481 107.203 178.957 108.382 178.101 109.228C177.663 109.667 177.139 110.01 176.697 110.45C175.822 111.383 175.251 112.562 175.061 113.829C174.878 115.089 174.827 116.365 174.908 117.636C174.897 118.022 174.953 118.406 175.072 118.772C175.2 119.072 175.376 119.35 175.592 119.594C176.679 121.016 178.135 122.111 179.802 122.758C181.477 123.351 183.434 123.28 184.931 122.319C185.081 122.236 185.204 122.112 185.287 121.962C185.358 121.739 185.358 121.499 185.287 121.276C185.109 120.386 185.194 119.464 185.533 118.622C185.83 118.036 186.094 117.434 186.324 116.818C186.471 116.113 186.49 115.387 186.381 114.675C186.207 112.854 185.889 111.018 186.171 109.189Z" fill="#46455B"/>
<path d="M289.725 204.294C289.725 239.434 311.724 267.873 338.913 267.873Z" fill="#46455B"/>
<path d="M338.913 267.873C338.913 232.333 363.46 203.58 393.803 203.58Z" fill="#00897B"/>
<path d="M307.547 207.458C307.547 240.841 321.572 267.855 338.913 267.855Z" fill="#00897B"/>
<path d="M338.913 267.874C338.913 222.464 367.288 185.72 402.357 185.72Z" fill="#46455B"/>
<path opacity="0.1" d="M336.778 280C343.531 280 349.007 279.073 349.007 277.929C349.007 276.784 343.531 275.857 336.778 275.857C330.024 275.857 324.548 276.784 324.548 277.929C324.548 279.073 330.024 280 336.778 280Z" fill="#00897B"/>
<path d="M328.562 268.302C328.562 268.302 335.537 268.088 337.64 266.588C339.743 265.087 348.372 263.294 348.893 265.702C349.413 268.109 359.375 277.668 351.502 277.732C343.628 277.796 333.203 276.503 331.103 275.232C329.004 273.96 328.562 268.302 328.562 268.302Z" fill="#A8A8A8"/>
<path opacity="0.2" d="M351.63 276.892C343.756 276.957 333.331 275.664 331.231 274.392C329.635 273.413 328.997 269.916 328.786 268.298H328.551C328.551 268.298 328.993 273.935 331.092 275.217C333.192 276.499 343.614 277.792 351.491 277.717C353.761 277.7 354.549 276.889 354.506 275.689C354.2 276.446 353.334 276.878 351.63 276.892Z" fill="black"/>
<path opacity="0.1" d="M290.68 13.073C290.989 12.6329 291.159 12.1105 291.169 11.5728C291.169 8.31525 284.546 5.6792 276.377 5.6792C268.207 5.6792 261.585 8.31525 261.585 11.5728C261.591 12.1786 261.795 12.7656 262.166 13.2445C253.07 14.2624 246.943 16.1698 246.943 18.3594C246.943 21.6134 260.487 24.253 277.239 24.253C293.992 24.253 307.536 21.6134 307.536 18.3594C307.547 16.0555 300.66 14.0374 290.68 13.073Z" fill="#00897B"/>
<path opacity="0.1" d="M109.257 19.5022C109.565 19.0621 109.735 18.5397 109.745 18.002C109.745 14.7444 103.123 12.1084 94.9532 12.1084C86.7838 12.1084 80.1613 14.7444 80.1613 18.002C80.1761 18.6111 80.3902 19.1985 80.7708 19.6736C71.6747 20.6916 65.5476 22.599 65.5476 24.7886C65.5476 28.0426 79.1098 30.6822 95.8443 30.6822C112.579 30.6822 126.141 28.0426 126.141 24.7886C126.123 22.4847 119.237 20.4666 109.257 19.5022Z" fill="#00897B"/>
<path opacity="0.1" d="M213.242 14.5518C214.073 14.0696 215.195 14.5304 215.766 15.3091C216.336 16.0877 216.479 17.095 216.639 18.0308C216.956 20.1454 217.188 22.5707 215.766 24.1602C218.09 17.0986 224.773 11.6908 232.162 10.9014" stroke="#00897B" stroke-width="3" stroke-miterlimit="10"/>
<path opacity="0.1" d="M94.3616 50.6208C94.8962 50.31 95.6162 50.6208 95.9833 51.1066C96.3103 51.6354 96.5036 52.2362 96.5465 52.8568C96.7497 54.2177 96.9029 55.775 95.9869 56.7859C96.7686 54.5182 98.1706 52.5165 100.033 51.0089C101.895 49.5014 104.143 48.5488 106.519 48.2598" stroke="#00897B" stroke-width="3" stroke-miterlimit="10"/>
<path opacity="0.1" d="M254.756 61.3366C255.29 61.0258 256.01 61.3366 256.377 61.8224C256.704 62.3512 256.898 62.952 256.941 63.5726C257.144 64.9335 257.297 66.4908 256.381 67.5017C257.163 65.2341 258.565 63.2323 260.427 61.7248C262.289 60.2172 264.537 59.2646 266.913 58.9756" stroke="#00897B" stroke-width="3" stroke-miterlimit="10"/>
<path opacity="0.1" d="M241.607 181.434V172.754L245.599 176.755L246.597 175.719L240.894 170.004L235.191 175.719L236.189 176.715L240.181 172.754V181.434H241.607Z" fill="#00897B"/>
<path opacity="0.1" d="M155.351 210.009V201.329L159.343 205.329L160.341 204.294L154.638 198.579L148.935 204.294L149.933 205.29L153.925 201.329V210.009H155.351Z" fill="#00897B"/>
<path opacity="0.1" d="M218.795 235.369V226.689L222.787 230.69L223.785 229.654L218.082 223.939L212.379 229.654L213.377 230.651L217.369 226.689V235.369H218.795Z" fill="#00897B"/>
</g>
<defs>
<linearGradient id="paint0_linear" x1="132.97" y1="96.8517" x2="132.97" y2="4.51759e-05" gradientUnits="userSpaceOnUse">
<stop stop-color="#808080" stop-opacity="0.25"/>
<stop offset="0.54" stop-color="#808080" stop-opacity="0.12"/>
<stop offset="1" stop-color="#808080" stop-opacity="0.1"/>
</linearGradient>
<linearGradient id="paint1_linear" x1="27630.7" y1="60429" x2="32889.8" y2="59886.7" gradientUnits="userSpaceOnUse">
<stop stop-color="#808080" stop-opacity="0.25"/>
<stop offset="0.54" stop-color="#808080" stop-opacity="0.12"/>
<stop offset="1" stop-color="#808080" stop-opacity="0.1"/>
</linearGradient>
<clipPath id="clip0">
<rect width="406" height="280" fill="white"/>
</clipPath>
</defs>
</svg>
