<svg width="457" height="320" viewBox="0 0 457 320" fill="none" xmlns="http://www.w3.org/2000/svg">
<g clip-path="url(#clip0)">
<path d="M451.831 188.437C451.831 233.176 425.237 248.797 392.432 248.797C359.626 248.797 333.032 233.176 333.032 188.437C333.032 143.698 392.432 86.7822 392.432 86.7822C392.432 86.7822 451.831 143.698 451.831 188.437Z" fill="#F2F2F2"/>
<path d="M390.268 241.954L390.876 204.511L416.194 158.189L390.972 198.637L391.245 181.802L408.694 148.288L391.318 177.347L391.809 147.066L410.494 120.386L391.887 142.305L392.194 86.7827L390.263 160.284L390.421 157.252L371.425 128.172L390.117 163.073L388.347 196.89L388.294 195.992L366.394 165.39L388.228 199.164L388.006 203.393L387.967 203.456L387.985 203.804L383.494 289.601H389.494L390.214 245.285L411.994 211.594L390.268 241.954Z" fill="#3F3D56"/>
<path d="M328.281 147.717C328.281 205.58 293.886 225.783 251.457 225.783C209.029 225.783 174.634 205.58 174.634 147.717C174.634 89.8542 251.457 16.2437 251.457 16.2437C251.457 16.2437 328.281 89.8542 328.281 147.717Z" fill="#F2F2F2"/>
<path d="M248.659 216.932L249.445 168.506L282.19 108.597L249.569 160.91L249.923 139.136L272.49 95.7915L250.016 133.373V133.374L250.652 94.2114L274.818 59.7041L250.752 88.0531L251.15 16.2441L248.652 111.307L248.857 107.385L224.288 69.7743L248.463 114.913L246.174 158.65L246.106 157.489L217.782 117.909L246.02 161.59L245.734 167.06L245.683 167.143L245.706 167.591L239.898 278.557H247.658L248.589 221.241L276.758 177.667L248.659 216.932Z" fill="#3F3D56"/>
<path d="M447.08 297.82C447.08 302.175 434.426 306.241 412.562 309.666C372.944 315.878 303.093 320 223.538 320C100.083 320 0 310.071 0 297.82C0 296.127 1.92104 294.468 5.56067 292.883C9.66548 291.087 15.9627 289.377 24.1551 287.778C41.0439 284.483 65.9958 281.666 96.4309 279.572C131.759 277.147 174.483 275.704 220.57 275.648C221.557 275.644 222.546 275.642 223.538 275.644C229.09 275.644 234.593 275.664 240.048 275.704C242.611 275.721 245.162 275.744 247.702 275.773C274.846 276.061 300.535 276.833 323.88 277.996C324.922 278.047 325.96 278.103 326.994 278.155C327.347 278.172 327.7 278.194 328.054 278.211C328.148 278.215 328.243 278.22 328.338 278.228C332.925 278.469 337.412 278.727 341.798 278.999C343.237 279.085 344.662 279.176 346.075 279.271C359.802 280.162 372.474 281.201 383.871 282.368C385.818 282.566 387.728 282.769 389.6 282.975C404.021 284.556 416.163 286.353 425.518 288.304C439.345 291.186 447.08 294.412 447.08 297.82Z" fill="#3F3D56"/>
<path opacity="0.1" d="M324.321 307.721C351.221 307.721 373.028 302.667 373.028 296.434C373.028 290.2 351.221 285.146 324.321 285.146C297.42 285.146 275.613 290.2 275.613 296.434C275.613 302.667 297.42 307.721 324.321 307.721Z" fill="black"/>
<path opacity="0.1" d="M447.08 297.82C447.08 302.175 434.426 306.242 412.562 309.666C396.031 307.861 384.586 303.963 384.586 299.448C384.586 293.827 402.315 289.166 425.518 288.304C439.345 291.186 447.08 294.413 447.08 297.82Z" fill="black"/>
<path opacity="0.1" d="M242.35 292.671C242.35 300.109 189.338 306.137 123.947 306.137C59.1697 306.137 6.5419 300.224 5.55981 292.881C18.1327 287.392 51.234 282.679 96.429 279.57C105.26 279.333 114.475 279.206 123.947 279.206C189.338 279.206 242.35 285.234 242.35 292.671Z" fill="black"/>
<path d="M220.57 0H24.1558V294.255H220.57V0Z" fill="#3F3D56"/>
<path d="M220.57 102.177H36.0356V192.474H220.57V102.177Z" fill="#2F2E41"/>
<path d="M293.037 104.158H110.483V190.098H293.037V104.158Z" fill="#3F3D56"/>
<path d="M162.457 116.831H121.67V131.484H162.457V116.831Z" fill="#00897B"/>
<path d="M281.85 142.573H131.768V146.534H281.85V142.573Z" fill="#00897B"/>
<path d="M281.85 152.87H131.768V156.83H281.85V152.87Z" fill="#00897B"/>
<path d="M281.85 163.167H131.768V167.127H281.85V163.167Z" fill="#00897B"/>
<path d="M281.85 173.464H131.768V177.425H281.85V173.464Z" fill="#00897B"/>
<path d="M78.0112 33.2671H37.2236V47.9205H78.0112V33.2671Z" fill="#F2F2F2"/>
<path d="M197.404 59.0093H47.3215V62.9697H197.404V59.0093Z" fill="#F2F2F2"/>
<path d="M197.404 69.3066H47.3215V73.267H197.404V69.3066Z" fill="#F2F2F2"/>
<path d="M197.404 79.6035H47.3215V83.5639H197.404V79.6035Z" fill="#F2F2F2"/>
<path d="M197.404 89.9004H47.3215V93.8608H197.404V89.9004Z" fill="#F2F2F2"/>
<path d="M79.5952 201.583H38.8076V216.236H79.5952V201.583Z" fill="#F2F2F2"/>
<path d="M198.988 227.325H48.9055V231.286H198.988V227.325Z" fill="#F2F2F2"/>
<path d="M198.988 237.622H48.9055V241.582H198.988V237.622Z" fill="#F2F2F2"/>
<path d="M198.988 247.919H48.9055V251.879H198.988V247.919Z" fill="#F2F2F2"/>
<path d="M198.988 258.216H48.9055V262.177H198.988V258.216Z" fill="#F2F2F2"/>
<path d="M311.442 60.5056C311.442 60.5056 319.584 70.9389 318.566 78.3186C317.549 85.6983 335.36 68.1398 335.36 68.1398C335.36 68.1398 329.253 55.4162 332.561 49.3089C335.869 43.2015 311.442 60.5056 311.442 60.5056Z" fill="#FFB9B9"/>
<path d="M339.94 271.717C339.94 271.717 350.626 283.422 348.845 285.967C347.064 288.512 315.767 298.182 312.205 297.673C308.643 297.164 306.862 294.619 308.134 293.856C309.406 293.092 317.548 288.766 317.548 288.766L324.419 280.878C324.419 280.878 329.507 278.079 329.507 276.552C329.507 275.025 339.94 271.717 339.94 271.717Z" fill="#2F2E41"/>
<path d="M321.874 284.695C321.874 284.695 317.803 291.311 317.04 291.566C316.276 291.82 320.856 300.981 320.856 300.981L331.543 297.673L337.395 292.838L336.123 286.222L321.874 284.695Z" fill="#FFB9B9"/>
<path d="M310.933 158.477L305.844 181.125C305.844 181.125 288.287 220.568 300.501 227.439L327.217 278.588L341.466 272.226L317.548 219.805L328.489 159.495L310.933 158.477Z" fill="#D0CDE1"/>
<path opacity="0.1" d="M310.933 158.477L305.844 181.125C305.844 181.125 288.287 220.568 300.501 227.439L327.217 278.588L341.466 272.226L317.548 219.805L328.489 159.495L310.933 158.477Z" fill="black"/>
<path d="M312.714 162.04H310.132C309.931 169.866 310.369 177.696 311.442 185.451C313.223 198.429 317.803 228.202 317.803 228.202C317.803 228.202 317.294 233.801 318.821 235.582C320.347 237.363 320.602 235.073 320.856 239.144C321.111 243.216 323.528 271.524 323.528 271.524C323.528 271.524 325.182 277.315 323.401 278.588C321.619 279.86 318.057 286.731 320.602 287.749C323.146 288.766 340.703 290.039 341.466 289.275C342.23 288.512 341.466 240.671 341.466 240.671C341.466 240.671 340.957 231.001 340.448 230.492C339.94 229.983 337.65 223.113 338.413 221.586C339.176 220.059 338.667 215.479 338.667 214.715C338.667 213.952 336.377 214.715 338.413 211.407C340.448 208.099 340.703 181.634 340.703 181.634C340.703 181.634 351.644 164.839 348.336 160.513L312.714 162.04Z" fill="#D0CDE1"/>
<path d="M318.566 64.3227C327.841 64.3227 335.36 56.8032 335.36 47.5276C335.36 38.2519 327.841 30.7324 318.566 30.7324C309.292 30.7324 301.773 38.2519 301.773 47.5276C301.773 56.8032 309.292 64.3227 318.566 64.3227Z" fill="#FFB9B9"/>
<path d="M335.36 65.3403C335.36 65.3403 325.182 67.8851 321.111 73.9924L317.548 74.7558V78.3184C317.548 78.3184 310.933 99.4395 312.46 108.601C313.986 117.761 312.46 135.574 309.915 140.409C307.371 145.244 306.607 146.262 307.88 148.298C309.152 150.334 310.933 157.205 309.661 160.258C308.388 163.312 309.661 166.366 321.365 167.129C333.07 167.892 349.609 167.892 349.609 163.821C349.609 159.749 348.591 148.298 349.609 145.244C350.626 142.191 351.135 140.155 350.626 137.356C350.117 134.557 351.644 103.257 351.644 103.257C351.644 103.257 351.899 71.9566 335.36 65.3403Z" fill="#2F2E41"/>
<path d="M311.442 143.972L297.447 164.839C297.447 164.839 282.689 178.326 288.033 184.433C293.376 190.541 307.371 166.62 307.371 166.62L322.637 149.316L311.442 143.972Z" fill="#FFB9B9"/>
<path d="M320.347 292.838C320.347 292.838 319.838 289.53 318.057 289.53C316.276 289.53 304.317 297.673 304.317 297.673C304.317 297.673 288.542 299.454 294.648 302.762C300.755 306.07 338.158 306.579 338.413 305.307C338.667 304.035 339.176 291.487 337.395 291.526C335.614 291.566 321.365 294.365 321.365 294.365L320.347 292.838Z" fill="#2F2E41"/>
<path d="M319.761 38.8505C319.164 39.1446 318.507 39.2932 317.842 39.2842C317.155 39.3232 316.336 39.2808 315.971 38.6982C315.798 38.3148 315.718 37.8961 315.737 37.4761C315.665 36.9367 315.485 36.4176 315.206 35.95C314.928 35.4824 314.558 35.076 314.118 34.7555C313.678 34.435 313.178 34.207 312.648 34.0852C312.118 33.9634 311.568 33.9504 311.033 34.047C311.106 34.8881 311.362 35.7031 311.783 36.4349C311.039 36.6873 310.247 36.7647 309.468 36.661C308.689 36.5574 307.945 36.2755 307.293 35.8373L307.035 39.2651C306.122 39.7014 304.953 39.7924 304.157 39.168C303.361 38.5436 303.297 37.0781 304.197 36.6167C303.085 36.3848 301.725 35.8865 301.643 34.7533C301.569 33.7192 302.666 32.9624 302.868 31.9456C303.033 31.1163 302.579 30.2149 302.9 29.433C303.323 28.4058 304.857 28.1421 305.165 27.0748C305.322 26.5312 305.096 25.9499 305.15 25.3867C305.291 23.9123 307.145 23.3001 308.623 23.3839C310.102 23.4677 311.716 23.8604 312.972 23.0758C313.581 22.6954 314.007 22.0865 314.542 21.6077C315.282 20.9731 316.202 20.5864 317.173 20.5019C318.144 20.4175 319.117 20.6395 319.955 21.1369C320.55 21.5068 321.069 22.0193 321.732 22.2441C323.089 22.7041 324.505 21.8337 325.924 21.633C326.443 21.5441 326.975 21.5741 327.481 21.7206C327.987 21.8671 328.453 22.1264 328.844 22.4789C329.224 22.844 329.472 23.3242 329.551 23.8451C329.629 24.3659 329.534 24.8981 329.279 25.359C330.111 25.2184 330.994 25.0824 331.778 25.3943C332.563 25.7061 333.162 26.6456 332.799 27.408C332.664 27.6079 332.558 27.8255 332.483 28.0547C332.409 28.4982 332.836 28.8774 333.267 29.0046C333.698 29.1317 334.166 29.1079 334.589 29.2625C336.333 29.9008 335.914 32.6894 337.287 33.9405C337.758 34.2829 338.256 34.5873 338.775 34.8506C339.457 35.3232 339.955 36.0156 340.188 36.8119C340.42 37.6082 340.372 38.4602 340.052 39.2253C339.777 39.8347 339.316 40.4163 339.371 41.0826C339.449 42.0171 340.45 42.529 341.153 43.15C341.794 43.7412 342.232 44.5194 342.405 45.374C342.579 46.2286 342.478 47.1161 342.118 47.9102C341.472 49.2577 340.073 50.2792 339.931 51.7668C339.869 52.4134 340.064 53.059 340.053 53.7084C340.012 54.3088 339.836 54.8922 339.538 55.4151C339.24 55.9381 338.829 56.3871 338.333 56.7288C337.337 57.4041 336.214 57.8713 335.033 58.1023C334.478 58.2351 333.816 58.443 333.682 58.9974C333.523 59.6546 334.256 60.2528 334.18 60.9248C334.133 61.2168 333.971 61.478 333.731 61.6512C332.739 62.4276 331.168 61.762 330.561 60.6576C329.954 59.5532 330.032 58.2149 330.126 56.9582L330.468 52.3884C330.574 50.9665 330.564 49.278 329.405 48.4477C328.124 47.5296 326.258 48.2728 324.809 47.6525C323.299 47.0061 322.757 45.1144 322.818 43.473C322.879 41.8316 323.35 40.1877 323.079 38.5674C322.744 36.5595 320.958 35.21 319.155 36.5111C320.74 36.2952 321.013 38.1142 319.761 38.8505Z" fill="#2F2E41"/>
<path opacity="0.1" d="M333.833 77.5552C333.833 77.5552 323.655 81.6267 323.655 90.2787C323.655 98.9308 324.164 110.382 322.383 114.199C320.602 118.016 319.075 119.289 320.093 122.342C321.111 125.396 322.892 124.887 320.093 127.177C317.294 129.467 317.548 125.65 317.294 129.467C317.04 133.284 319.838 133.793 317.294 135.575C314.75 137.356 308.134 144.481 310.933 146.771C313.732 149.062 321.111 156.441 323.655 153.642C326.2 150.843 327.472 143.718 331.034 144.227C334.596 144.736 335.105 144.99 334.596 142.445C334.087 139.901 331.797 139.901 334.851 139.137C337.904 138.374 339.176 140.155 338.158 137.61C337.141 135.066 336.377 134.048 338.413 131.249C340.449 128.449 341.466 127.686 341.212 124.887C340.957 122.088 346.81 96.895 346.81 96.895C346.81 96.895 348.591 75.5194 333.833 77.5552Z" fill="black"/>
<path opacity="0.1" d="M331.034 77.0459C331.034 77.0459 320.856 81.1174 320.856 89.7695C320.856 98.4215 321.365 109.873 319.584 113.69C317.803 117.507 316.276 118.779 317.294 121.833C318.312 124.887 320.093 124.378 317.294 126.668C314.495 128.958 314.75 125.141 314.495 128.958C314.241 132.775 317.04 133.284 314.495 135.065C311.951 136.847 305.335 143.972 308.134 146.262C310.933 148.552 318.312 155.932 320.856 153.133C323.401 150.334 324.673 143.209 328.235 143.717C331.797 144.226 332.306 144.481 331.797 141.936C331.289 139.391 328.999 139.391 332.052 138.628C335.105 137.865 336.377 139.646 335.36 137.101C334.342 134.556 333.579 133.539 335.614 130.739C337.65 127.94 338.667 127.177 338.413 124.378C338.159 121.578 344.011 96.3857 344.011 96.3857C344.011 96.3857 345.792 75.0101 331.034 77.0459Z" fill="black"/>
<path d="M332.306 76.2827C332.306 76.2827 322.128 80.3542 322.128 89.0063C322.128 97.6583 322.637 109.11 320.856 112.927C319.075 116.744 317.548 118.016 318.566 121.07C319.584 124.123 321.365 123.614 318.566 125.905C315.767 128.195 316.022 124.378 315.767 128.195C315.513 132.012 318.312 132.521 315.767 134.302C313.223 136.084 306.607 143.209 309.406 145.499C312.205 147.789 319.584 155.169 322.128 152.37C324.673 149.571 325.945 142.445 329.507 142.954C333.07 143.463 333.579 143.718 333.07 141.173C332.561 138.628 330.271 138.628 333.324 137.865C336.377 137.101 337.65 138.883 336.632 136.338C335.614 133.793 334.851 132.775 336.886 129.976C338.922 127.177 339.94 126.414 339.685 123.614C339.431 120.815 345.283 95.6225 345.283 95.6225C345.283 95.6225 347.064 74.2469 332.306 76.2827Z" fill="#2F2E41"/>
<path d="M385.5 252.093C385.5 274.357 399.465 292.373 416.724 292.373Z" fill="#2F2E41"/>
<path d="M416.724 292.373C416.724 269.859 432.309 251.641 451.57 251.641Z" fill="#00897B"/>
<path d="M396.813 254.111C396.813 275.26 405.719 292.373 416.724 292.373Z" fill="#00897B"/>
<path d="M416.724 292.373C416.724 263.605 434.738 240.326 457 240.326Z" fill="#2F2E41"/>
<path d="M410.156 292.657C410.156 292.657 414.584 292.52 415.918 291.57C417.253 290.619 422.73 289.485 423.061 291.009C423.392 292.533 429.716 298.59 424.716 298.63C419.717 298.67 413.1 297.851 411.768 297.04C410.436 296.228 410.156 292.657 410.156 292.657Z" fill="#A8A8A8"/>
<path opacity="0.2" d="M424.806 298.099C419.806 298.14 413.189 297.321 411.857 296.509C410.843 295.891 410.439 293.674 410.303 292.651C410.21 292.655 410.156 292.657 410.156 292.657C410.156 292.657 410.436 296.228 411.768 297.04C413.1 297.851 419.717 298.67 424.716 298.63C426.16 298.618 426.658 298.105 426.631 297.344C426.43 297.804 425.88 298.091 424.806 298.099Z" fill="black"/>
</g>
<defs>
<clipPath id="clip0">
<rect width="457" height="320" fill="white"/>
</clipPath>
</defs>
</svg>
